<svg width="159" height="170" viewBox="0 0 159 170" fill="none" xmlns="http://www.w3.org/2000/svg">
<g id="Group 1171276128">
<g id="Ornament 63">
<path d="M44.1131 12.8594L64.1803 24.6232C67.0349 26.2967 68.7934 29.3893 68.7934 32.7362V56.2638C68.7934 59.6107 67.0349 62.7033 64.1803 64.3768L44.1131 76.1406C41.2585 77.814 37.7415 77.814 34.8869 76.1406L14.8197 64.3768C11.9651 62.7033 10.2066 59.6107 10.2066 56.2638V32.7362C10.2066 29.3893 11.9651 26.2967 14.8197 24.6232L34.8869 12.8594C37.7415 11.186 41.2585 11.186 44.1131 12.8594Z" fill="#BEDDFF"/>
<path fill-rule="evenodd" clip-rule="evenodd" d="M45.2664 1.56885C41.6981 -0.522952 37.3018 -0.52295 33.7336 1.56885L5.76642 17.9638C2.19815 20.0556 0 23.9214 0 28.105V60.895C0 65.0786 2.19815 68.9444 5.76643 71.0362L33.7336 87.4311C37.3018 89.523 41.6982 89.523 45.2664 87.4311L73.2336 71.0362C76.8018 68.9444 79 65.0786 79 60.895V28.105C79 23.9214 76.8018 20.0556 73.2336 17.9638L45.2664 1.56885ZM33.7336 10.8312C37.3018 8.73936 41.6982 8.73936 45.2664 10.8312L65.3336 22.595C68.9019 24.6868 71.1 28.5526 71.1 32.7362V56.2638C71.1 60.4474 68.9019 64.3132 65.3336 66.405L45.2664 78.1688C41.6981 80.2607 37.3019 80.2607 33.7336 78.1688L13.6664 66.405C10.0982 64.3132 7.9 60.4474 7.9 56.2638V32.7362C7.9 28.5526 10.0981 24.6868 13.6664 22.595L33.7336 10.8312Z" fill="#BEDDFF"/>
</g>
<path id="Ornament 64" d="M87.869 104.933L91.2541 102.95L92.5175 105.108L94.21 104.117C94.7908 103.776 95.4051 103.521 96.0363 103.35L95.382 100.937C97.0956 100.472 98.9044 100.472 100.618 100.937L99.9636 103.35C100.595 103.521 101.209 103.776 101.79 104.117L103.483 105.108L104.746 102.95L108.131 104.933L106.868 107.09L110.253 109.072L111.516 106.915L114.901 108.897L113.638 111.055L117.023 113.037L118.286 110.88L121.672 112.862L120.408 115.019L122.101 116.011C122.671 116.344 123.186 116.747 123.639 117.204L125.415 115.444C126.642 116.683 127.525 118.224 127.974 119.909L125.559 120.553C125.724 121.174 125.811 121.822 125.811 122.482V124.485H128.311V128.491H125.811V132.497H128.311V136.503H125.811V140.509H128.311V144.515H125.811V146.518C125.811 147.178 125.724 147.826 125.559 148.447L127.974 149.091C127.525 150.776 126.642 152.317 125.415 153.556L123.639 151.796C123.186 152.253 122.671 152.656 122.101 152.989L120.408 153.981L121.672 156.138L118.286 158.12L117.023 155.963L113.638 157.945L114.901 160.103L111.516 162.085L110.253 159.928L106.868 161.91L108.131 164.067L104.746 166.05L103.483 163.892L101.79 164.883C101.209 165.224 100.595 165.479 99.9637 165.65L100.618 168.063C98.9044 168.528 97.0956 168.528 95.382 168.063L96.0364 165.65C95.4051 165.479 94.7908 165.224 94.21 164.883L92.5175 163.892L91.2541 166.05L87.869 164.067L89.1323 161.91L85.7472 159.928L84.4838 162.085L81.0987 160.103L82.362 157.945L78.9769 155.963L77.7136 158.12L74.3284 156.138L75.5917 153.981L73.8992 152.989C73.3289 152.656 72.8138 152.253 72.3613 151.796L70.5853 153.556C69.3577 152.317 68.4746 150.776 68.0257 149.091L70.4414 148.447C70.276 147.826 70.1891 147.178 70.1891 146.518V144.515H67.6891V140.509H70.1891V136.503H67.6891V132.497H70.1891V128.491H67.6891V124.485H70.1891V122.482C70.1891 121.822 70.276 121.174 70.4414 120.553L68.0257 119.909C68.4746 118.224 69.3577 116.683 70.5853 115.444L72.3613 117.204C72.8138 116.747 73.3289 116.344 73.8991 116.011L75.5917 115.019L74.3284 112.862L77.7135 110.88L78.9769 113.037L82.362 111.055L81.0987 108.897L84.4838 106.915L85.7472 109.072L89.1323 107.09L87.869 104.933Z" fill="#BEDDFF" stroke="#C2CEFF" stroke-width="5" stroke-dasharray="4 4"/>
<path id="Ornament 65" d="M138.565 46.6461C140.388 45.6236 142.612 45.6236 144.435 46.6461L153.59 51.781C155.483 52.8427 156.655 54.8438 156.655 57.0141V66.9859C156.655 69.1562 155.483 71.1573 153.59 72.219L144.435 77.3539C142.612 78.3764 140.388 78.3764 138.565 77.3539L129.41 72.219C127.517 71.1573 126.345 69.1562 126.345 66.9859V57.0141C126.345 54.8438 127.517 52.8427 129.41 51.781L138.565 46.6461Z" fill="#BEDDFF"/>
</g>
</svg>
