<svg width="240" height="196" viewBox="0 0 240 196" fill="none" xmlns="http://www.w3.org/2000/svg">
<g id="Group">
<path id="Path" d="M143.236 184.803H128.973V178.769H114.399V171.637L103.547 162.035H87.1129V134.33H65.7177V100.041L38.7413 123.906V169.442H24.4779V189.613H18.5864V183.98H8.04395V195.245H150.368V191.113L143.236 184.803Z" fill="#F4F4F4"/>
<rect id="Rectangle" x="67.3672" y="141.271" width="1.94866" height="1.7239" fill="white"/>
<rect id="Rectangle_2" x="72.1089" y="141.271" width="1.94866" height="1.7239" fill="white"/>
<rect id="Rectangle_3" x="76.8506" y="141.271" width="1.94866" height="1.7239" fill="white"/>
<rect id="Rectangle_4" x="67.3672" y="145.919" width="1.94866" height="1.7239" fill="white"/>
<rect id="Rectangle_5" x="72.1089" y="145.919" width="1.94866" height="1.7239" fill="white"/>
<rect id="Rectangle_6" x="76.8506" y="145.919" width="1.94866" height="1.7239" fill="white"/>
<rect id="Rectangle_7" x="67.3672" y="150.567" width="1.94866" height="1.7239" fill="white"/>
<rect id="Rectangle_8" x="72.1089" y="150.567" width="1.94866" height="1.7239" fill="white"/>
<rect id="Rectangle_9" x="76.8506" y="150.567" width="1.94866" height="1.7239" fill="white"/>
<rect id="Rectangle_10" x="67.3672" y="155.215" width="1.94866" height="1.7239" fill="white"/>
<rect id="Rectangle_11" x="72.1089" y="155.215" width="1.94866" height="1.7239" fill="white"/>
<rect id="Rectangle_12" x="76.8506" y="155.215" width="1.94866" height="1.7239" fill="white"/>
<rect id="Rectangle_13" x="67.3672" y="159.863" width="1.94866" height="1.7239" fill="white"/>
<rect id="Rectangle_14" x="72.1089" y="159.863" width="1.94866" height="1.7239" fill="white"/>
<rect id="Rectangle_15" x="76.8506" y="159.863" width="1.94866" height="1.7239" fill="white"/>
<rect id="Rectangle_16" x="67.3672" y="164.511" width="1.94866" height="1.7239" fill="white"/>
<rect id="Rectangle_17" x="72.1089" y="164.511" width="1.94866" height="1.7239" fill="white"/>
<rect id="Rectangle_18" x="76.8506" y="164.511" width="1.94866" height="1.7239" fill="white"/>
<rect id="Rectangle_19" x="67.3672" y="169.16" width="1.94866" height="1.7239" fill="white"/>
<rect id="Rectangle_20" x="72.1089" y="169.16" width="1.94866" height="1.7239" fill="white"/>
<rect id="Rectangle_21" x="76.8506" y="169.16" width="1.94866" height="1.7239" fill="white"/>
<rect id="Rectangle_22" x="67.3672" y="173.808" width="1.94866" height="1.7239" fill="white"/>
<rect id="Rectangle_23" x="72.1089" y="173.808" width="1.94866" height="1.7239" fill="white"/>
<rect id="Rectangle_24" x="76.8506" y="173.808" width="1.94866" height="1.7239" fill="white"/>
<rect id="Rectangle_25" x="67.3672" y="178.456" width="1.94866" height="1.7239" fill="white"/>
<rect id="Rectangle_26" x="72.1089" y="178.456" width="1.94866" height="1.7239" fill="white"/>
<rect id="Rectangle_27" x="76.8506" y="178.456" width="1.94866" height="1.7239" fill="white"/>
<path id="Path_2" d="M1.22217 195.245H157.19" stroke="#40576D" stroke-width="0.8" stroke-linecap="round"/>
<path id="Path_3" d="M118.645 78.4992C118.645 78.4992 158.507 96.3218 181.42 130.178H188.601L174.58 146.251L130.122 116.499C130.122 116.499 102.764 112.375 94.5561 106.239C86.3486 100.103 99.4257 77.007 99.4257 77.007" fill="#E2E2E2"/>
<path id="Path_4" d="M113.038 77.9394L86.3416 76.1106L81.4875 78.0876L79.2061 194.675H104.002L101.38 189.977L113.038 77.9394Z" fill="#EDEEEF"/>
<path id="Path_5" d="M92.9175 21.8711V26.085C92.9175 29.3433 95.1419 32.1807 98.3061 32.9584L105.012 34.6066V18.1311L99.4361 16.7607C97.8659 16.3748 96.2056 16.732 94.9332 17.7296C93.6607 18.7271 92.9175 20.2542 92.9175 21.8711L92.9175 21.8711Z" fill="#EDEEEF"/>
<path id="Path_6" d="M92.9175 26.085C92.9175 29.3433 95.1419 32.1807 98.3061 32.9584L105.012 34.6066" stroke="#40576D" stroke-width="0.8" stroke-linecap="round"/>
<path id="Oval" d="M99.7492 25.2489C99.9278 25.2489 100.073 25.1041 100.073 24.9255C100.073 24.7469 99.9278 24.6021 99.7492 24.6021C99.5706 24.6021 99.4258 24.7469 99.4258 24.9255C99.4258 25.1041 99.5706 25.2489 99.7492 25.2489Z" fill="#40576D"/>
<path id="Oval_2" d="M94.7824 25.2489C94.961 25.2489 95.1057 25.1041 95.1057 24.9255C95.1057 24.7469 94.961 24.6021 94.7824 24.6021C94.6038 24.6021 94.459 24.7469 94.459 24.9255C94.459 25.1041 94.6038 25.2489 94.7824 25.2489Z" fill="#40576D"/>
<path id="Path_7" d="M96.2397 26.8545V21.8711" stroke="#40576D" stroke-width="0.8" stroke-linecap="round"/>
<path id="Path_8" d="M104.215 24.4245V26.1551C104.663 26.1551 105.093 25.977 105.41 25.66C105.727 25.343 105.905 24.9131 105.905 24.4648C105.905 24.4129 105.903 24.3617 105.898 24.311C105.804 23.2614 104.215 23.3706 104.215 24.4245Z" fill="#EDEEEF"/>
<path id="Path_9" d="M104.215 26.1551C104.663 26.1551 105.093 25.977 105.41 25.6601C105.727 25.3431 105.905 24.9131 105.905 24.4648" stroke="#40576D" stroke-width="0.8" stroke-linecap="round"/>
<path id="Path_10" d="M97.6045 27.4369C98.0416 27.874 98.7503 27.874 99.1874 27.4369" stroke="#97A9B8" stroke-linecap="round" stroke-linejoin="round"/>
<path id="Path_11" d="M96.2397 26.8585L97.3317 27.1269" stroke="#40576D" stroke-width="0.8" stroke-linecap="round"/>
<path id="Path_12" d="M118.645 52.0892V78.4992L81.2319 87.6947V58.2812C81.2319 47.8517 88.3521 38.7697 98.4801 36.2804H98.4802C103.337 35.0866 108.473 36.1918 112.41 39.2777C116.346 42.3636 118.645 47.0876 118.645 52.0892L118.645 52.0892Z" fill="#97A9B8"/>
<path id="Path_13" d="M97.6045 32.7457C97.6045 32.7457 98.7913 37.8679 95.3674 39.937C94.8175 40.2777 94.4822 40.8778 94.4802 41.5247C94.4478 44.1171 93.8871 50.1091 89.3411 49.299C85.6265 48.6371 86.6878 42.2933 87.9197 37.8465C88.6916 35.067 89.007 32.1807 88.8537 29.3001C88.528 23.2384 89.5804 12.8678 100.84 14.0512C102.511 14.2055 104.122 14.7495 105.544 15.6395C108.457 17.5141 111.709 21.6857 105.011 29.843" stroke="#40576D" stroke-width="0.8" stroke-linecap="round"/>
<path id="Path_14" d="M92.9175 23.383C92.9175 23.383 100.551 24.865 101.729 20.191C101.729 20.191 102.318 23.5018 104.247 24.1834" stroke="#40576D" stroke-width="0.8" stroke-linecap="round"/>
<path id="Path_15" d="M101.38 189.977L113.038 77.9394" stroke="#40576D" stroke-width="0.8" stroke-linecap="round"/>
<path id="Path_16" d="M86.7733 43.4377C86.7733 43.4377 57.2523 71.5224 62.9523 87.6947C68.6523 103.867 101.169 80.155 100.073 73.087L98.9646 69.6536C98.9646 69.6536 103.328 63.511 101.38 64.651C99.4324 65.791 82.0285 72.859 82.0285 72.859L88.0323 65.335" stroke="#40576D" stroke-width="0.8" stroke-linecap="round"/>
<path id="Path_17" d="M81.0156 90.641V102.193C88.363 97.4791 96.1218 80.0304 96.1219 80.0302C92.4548 83.8474 86.7302 88.0288 81.0156 90.641Z" fill="#40576D"/>
<path id="Path_18" d="M104.068 36.379C104.068 36.379 119.724 35.467 128.996 40.027L123.524 23.5767C123.524 23.5767 118.356 19.811 122.004 19.203C122.004 19.203 120.484 15.099 121.548 15.251C122.612 15.403 142.22 27.7817 143.74 43.4377C145.26 59.0937 118.645 58.723 118.645 58.723" stroke="#40576D" stroke-width="0.8" stroke-linecap="round"/>
<path id="Path_19" d="M191.581 11.7144C171.567 11.7144 155.343 27.9385 155.343 47.952C155.343 67.9654 171.567 84.1895 191.581 84.1895C211.594 84.1895 227.818 67.9654 227.818 47.952H191.581V11.7144Z" fill="#EDEEEF"/>
<path id="Path_20" d="M155.343 47.9519C155.343 67.9654 171.567 84.1895 191.581 84.1895C211.594 84.1895 227.818 67.9654 227.818 47.9519" stroke="#40576D" stroke-width="0.8" stroke-linecap="round"/>
<path id="Path_21" d="M227.818 47.9519H191.581L220.746 69.4598C225.35 63.2353 227.83 55.6944 227.818 47.9519Z" fill="#40576D"/>
<path id="Path_22" d="M191.581 0.755035V47.9519H238.777C238.777 35.4345 233.805 23.4298 224.954 14.5787C216.103 5.72755 204.098 0.755032 191.581 0.755035Z" fill="#94C8FF"/>
<path id="Path_23" d="M191.581 47.9519H238.777" stroke="#40576D" stroke-width="0.8" stroke-linecap="round"/>
<rect id="Rectangle_28" x="215.936" y="120.312" width="16.8532" height="16.8532" transform="rotate(180 215.936 120.312)" fill="#97A9B8"/>
<path id="Path_24" d="M220.557 104.729L207.509 91.6816L194.462 104.729H220.557Z" fill="#97A9B8"/>
<rect id="Rectangle_29" x="215.936" y="161.958" width="16.8532" height="16.8532" transform="rotate(180 215.936 161.958)" fill="#E8F3FF"/>
<path id="Path_25" d="M220.557 146.375L207.509 133.328L194.462 146.375H220.557Z" fill="#E8F3FF"/>
<path id="Path_26" d="M29.9994 25.1638C23.39 25.1521 18.0225 30.5005 18.0107 37.1099L41.9455 37.1525C41.9572 30.5431 36.6088 25.1756 29.9994 25.1638Z" fill="#EDEEEF"/>
<path id="Path_27" d="M54.9298 30.3527C51.1616 30.346 48.1014 33.3953 48.0947 37.1635L61.7406 37.1877C61.7473 33.4195 58.698 30.3594 54.9298 30.3527Z" fill="#EDEEEF"/>
<path id="Path_28" d="M41.9678 24.6381C35.0563 24.6258 29.4435 30.2187 29.4312 37.1302L54.4601 37.1748C54.4723 30.2632 48.8794 24.6503 41.9678 24.6381Z" fill="#EDEEEF"/>
<path id="Path_29" d="M15.8115 37.106L65.0053 37.1935" stroke="#40576D" stroke-width="0.8" stroke-linecap="round"/>
<path id="Path_30" d="M46.717 56.069C49.7469 56.0636 52.2075 58.5155 52.2129 61.5454L41.2407 61.5649C41.2353 58.535 43.6872 56.0744 46.717 56.069Z" fill="#EDEEEF"/>
<path id="Path_31" d="M35.2887 58.4477C37.0161 58.4446 38.419 59.8425 38.422 61.5699L32.1665 61.581C32.1634 59.8536 33.5613 58.4508 35.2887 58.4477Z" fill="#EDEEEF"/>
<path id="Path_32" d="M41.2306 55.828C44.399 55.8224 46.972 58.3863 46.9777 61.5547L35.5039 61.5751C35.4983 58.4067 38.0622 55.8336 41.2306 55.828Z" fill="#EDEEEF"/>
<path id="Path_33" d="M53.2213 61.5436L30.6699 61.5837" stroke="#40576D" stroke-width="0.8" stroke-linecap="round"/>
</g>
</svg>
