<svg width="200" height="200" viewBox="0 0 200 200" fill="none" xmlns="http://www.w3.org/2000/svg">
<path d="M131.041 190.103C132.115 152.868 115.464 82.9798 115.464 82.9798L92.7231 67.3001V140.337L114.149 194.979H134.199L131.041 190.103Z" fill="#97A9B8"/>
<path d="M115.464 140.497C115.464 112.715 107.201 90.1922 97.0075 90.1922C95.4765 90.2183 93.9868 90.6931 92.723 91.5576V140.338L108.348 180.186C112.679 170.981 115.464 156.626 115.464 140.497Z" fill="#40576D" stroke="#40576D" stroke-width="0.8"/>
<path d="M108.708 74.9185C108.708 74.9185 113.527 153.566 99.9175 190.802L102.76 194.979H78.5542C78.5542 194.979 75.9097 94.9442 75.9097 73.353L108.708 74.9185Z" fill="#97A9B8"/>
<path d="M102.211 14.0681V24.2891L89.5496 27.4009V10.1525L102.211 7.04065V14.0681Z" fill="#EDEEEF"/>
<path d="M95.0589 17.6052C95.2459 17.6052 95.3974 17.4536 95.3974 17.2666C95.3974 17.0797 95.2459 16.9281 95.0589 16.9281C94.8719 16.9281 94.7203 17.0797 94.7203 17.2666C94.7203 17.4536 94.8719 17.6052 95.0589 17.6052Z" fill="black" stroke="#40576D" stroke-width="0.8"/>
<path d="M100.258 17.6052C100.445 17.6052 100.597 17.4536 100.597 17.2666C100.597 17.0797 100.445 16.9281 100.258 16.9281C100.071 16.9281 99.9199 17.0797 99.9199 17.2666C99.9199 17.4536 100.071 17.6052 100.258 17.6052Z" fill="black" stroke="#40576D" stroke-width="0.8"/>
<path d="M98.7332 19.2859V14.0687H101.347" stroke="#40576D" stroke-width="0.8" stroke-linecap="round" stroke-linejoin="round"/>
<path d="M94.4211 14.0678H97.0348" stroke="#40576D" stroke-width="0.8" stroke-linecap="round" stroke-linejoin="round"/>
<path d="M90.3837 16.7422V18.554C89.4063 18.554 88.6141 17.7618 88.6141 16.7844C88.6141 16.7301 88.6165 16.6765 88.6213 16.6234C88.7204 15.5245 90.3837 15.6389 90.3837 16.7422Z" fill="#EDEEEF"/>
<path d="M90.3837 18.5539C89.4063 18.5539 88.6141 17.7617 88.6141 16.7844" stroke="#40576D" stroke-width="0.8" stroke-linecap="round" stroke-linejoin="round"/>
<path d="M97.5899 20.5723C97.1149 20.5723 96.6593 20.3836 96.3234 20.0477C95.9875 19.7118 95.7988 19.2563 95.7988 18.7812" stroke="#97A9B8" stroke-width="1.2" stroke-linecap="round" stroke-linejoin="round"/>
<path d="M92.7233 26.6219L89.5496 27.4019" stroke="#40576D" stroke-width="0.8" stroke-linecap="round" stroke-linejoin="round"/>
<path d="M98.733 19.2891L97.5898 19.57" stroke="#40576D" stroke-width="0.8" stroke-linecap="round" stroke-linejoin="round"/>
<path d="M90.8833 18.5533C90.8833 18.5533 89.8092 27.0609 96.254 27.2201C102.699 27.3792 103.235 23.0429 102.211 17.8314" stroke="#40576D" stroke-width="0.8" stroke-linecap="round" stroke-linejoin="round"/>
<path d="M88.9225 16.0356C88.9225 16.0356 86.547 9.23831 89.9285 6.45352C93.31 3.66873 103.852 6.05569 103.455 8.8007C103.057 11.5457 93.5487 11.7446 93.5487 11.7446C93.5487 11.7446 93.3498 14.3703 91.9972 14.8079C91.9972 14.8079 91.8381 17.3829 92.395 18.7807" stroke="#40576D" stroke-width="0.8" stroke-linecap="round" stroke-linejoin="round"/>
<path d="M76.2963 45.7041V73.353L115.464 82.9799V52.1866C115.464 41.2678 108.01 31.7597 97.4072 29.1536H97.4071C92.3222 27.9038 86.945 29.0609 82.8241 32.2915C78.7033 35.5222 76.2963 40.4678 76.2963 45.7041V45.7041Z" fill="#EDEEEF"/>
<path d="M106.688 61.6823L109.537 51.3281L120.203 52.641L115.465 68.6336L105.523 67.3" fill="#94C8FF"/>
<path d="M108.709 74.9188C108.709 74.9188 113.527 153.566 99.9176 190.802" stroke="#40576D" stroke-width="0.8" stroke-linecap="round" stroke-linejoin="round"/>
<path d="M81.9614 33.0172C81.9614 33.0172 62.2398 55.1181 66.3772 73.3536C70.5146 91.589 112.487 74.9977 113.461 67.3007C114.435 59.6037 106.955 64.5368 106.955 64.5368C106.955 64.5368 107.428 60.4193 105.996 62.0106C104.565 63.602 103.48 64.881 103.48 64.881L86.5868 62.9455L90.8162 53.5568" stroke="#40576D" stroke-width="0.8" stroke-linecap="round" stroke-linejoin="round"/>
<path d="M120.203 50.2922C116.265 52.2397 115.464 49.0608 115.464 49.0608C114.784 49.2994 112.621 51.708 112.863 49.0608C112.972 47.5486 114.009 46.2635 115.464 45.8384C115.464 45.8384 125.812 43.2376 126.648 55.8164C127.483 68.3951 121.51 76.4273 115.464 74.2432" stroke="#40576D" stroke-width="0.8" stroke-linecap="round" stroke-linejoin="round"/>
<path d="M106.229 33.4016C110.696 36.6393 114.405 40.8114 117.096 45.6278" stroke="#40576D" stroke-width="0.8" stroke-linecap="round" stroke-linejoin="round"/>
</svg>
