<svg width="301" height="300" viewBox="0 0 301 300" fill="none" xmlns="http://www.w3.org/2000/svg">
<path d="M186.26 76.9659V116.885L129.71 130.784V86.3251C129.71 70.5609 140.473 56.8334 155.781 53.0708H155.781C163.123 51.2663 170.886 52.9369 176.836 57.6012C182.785 62.2655 186.26 69.4059 186.26 76.9659V76.9659Z" fill="#EDEEEF"/>
<path d="M131.747 214.945V282.836L127.267 292.485H157.986L167.933 197.37L131.747 214.945Z" fill="#E2E2E2"/>
<path d="M138.572 116.038L186.261 113.273V164.973V292.484H154.023L157.985 285.382L138.572 116.038Z" fill="#EDEEEF"/>
<path d="M140.909 31.2911V37.6604C140.909 42.5854 144.271 46.8741 149.054 48.0496L159.189 50.5408V25.638L150.762 23.5666C148.388 22.9833 145.879 23.5234 143.955 25.0312C142.032 26.539 140.909 28.8472 140.909 31.2911V31.2911Z" fill="#EDEEEF"/>
<path d="M140.909 37.6594C140.909 42.5844 144.271 46.8731 149.054 48.0486L159.19 50.5398" stroke="#40576D" stroke-linecap="round" stroke-linejoin="round"/>
<path d="M151.235 36.3963C151.505 36.3963 151.724 36.1774 151.724 35.9075C151.724 35.6375 151.505 35.4187 151.235 35.4187C150.965 35.4187 150.747 35.6375 150.747 35.9075C150.747 36.1774 150.965 36.3963 151.235 36.3963Z" fill="black" stroke="#40576D"/>
<path d="M143.729 36.3963C143.998 36.3963 144.217 36.1774 144.217 35.9075C144.217 35.6375 143.998 35.4187 143.729 35.4187C143.459 35.4187 143.24 35.6375 143.24 35.9075C143.24 36.1774 143.459 36.3963 143.729 36.3963Z" fill="black" stroke="#40576D"/>
<path d="M145.93 38.8215V31.2891H142.157" stroke="#40576D" stroke-linecap="round" stroke-linejoin="round"/>
<path d="M152.156 31.29H148.383" stroke="#40576D" stroke-linecap="round" stroke-linejoin="round"/>
<path d="M157.985 35.1486V37.7644C159.396 37.7644 160.54 36.6206 160.54 35.2096C160.54 35.1312 160.537 35.0536 160.53 34.977C160.387 33.3905 157.985 33.5557 157.985 35.1486Z" fill="#EDEEEF"/>
<path d="M157.985 37.7651C159.396 37.7651 160.54 36.6212 160.54 35.2102" stroke="#40576D" stroke-linecap="round" stroke-linejoin="round"/>
<path d="M147.994 39.7031C148.311 40.0204 148.741 40.1986 149.19 40.1986C149.639 40.1986 150.069 40.0204 150.386 39.7031" stroke="#97A9B8" stroke-width="1.5" stroke-linecap="round" stroke-linejoin="round"/>
<path d="M145.931 38.8289L147.581 39.2345" stroke="#40576D" stroke-linecap="round" stroke-linejoin="round"/>
<path d="M141.274 28.8968C141.274 28.8968 141.556 24.7115 145.346 24.97C149.137 25.2285 154.565 24.8838 154.996 28.3301C155.427 31.7763 156.753 34.5333 157.985 34.5333" stroke="#40576D" stroke-linecap="round" stroke-linejoin="round"/>
<path d="M140.909 33.8681C140.909 33.8681 127.487 9.54909 151.236 7.82597C174.984 6.10286 186.16 37.5784 159.263 42.4031" stroke="#40576D" stroke-linecap="round" stroke-linejoin="round"/>
<path d="M159.829 39.6083C159.829 40.6264 159.004 41.4517 157.985 41.4517C156.967 41.4517 156.142 40.6264 156.142 39.6083C156.142 38.5902 156.967 37.7649 157.985 37.7649" stroke="#97A9B8" stroke-width="1.5" stroke-linecap="round" stroke-linejoin="round"/>
<path d="M140.909 41.0221C140.285 41.5445 139.392 41.5955 138.712 41.1475C138.032 40.6994 137.727 39.8586 137.961 39.0788C138.194 38.299 138.912 37.7649 139.726 37.7649" stroke="#97A9B8" stroke-width="1.5" stroke-linecap="round" stroke-linejoin="round"/>
<path d="M186.261 116.883L129.71 130.782V218.218L215.655 204.683L186.261 116.883Z" fill="#97A9B8"/>
<path d="M154.023 292.483L157.985 285.381L147.064 190.113" stroke="#40576D" stroke-linecap="round" stroke-linejoin="round"/>
<path fill-rule="evenodd" clip-rule="evenodd" d="M141.57 97.2747L124.51 52.3477L85.4526 62.9665L109.576 116.884L131.16 112.511" fill="#94C8FF"/>
<path d="M141.57 97.2747L124.51 52.3477L85.4526 62.9665L109.576 116.884L131.16 112.511" stroke="#40576D" stroke-linecap="round" stroke-linejoin="round"/>
<path d="M137.384 116.259C137.384 116.259 159.169 144.516 191.379 132.172L186.155 116.82C175.667 132.426 154.435 125.877 137.384 116.259Z" fill="#40576D" stroke="#40576D"/>
<path d="M141.275 60.6655L131.133 69.7875" stroke="#40576D" stroke-linecap="round" stroke-linejoin="round"/>
<path d="M94.7033 83.6416C94.7033 83.6416 88.3245 107.594 103.488 117.761C118.651 127.927 129.711 120.345 129.711 120.345" stroke="#40576D" stroke-linecap="round" stroke-linejoin="round"/>
<path d="M178.15 58.7085C178.15 58.7085 205.152 82.0341 187.461 114.658C169.77 147.283 112.793 100.644 112.103 96.9678C111.414 93.2918 117.388 92.3728 122.442 95.1298C122.442 95.1298 121.753 91.3677 124.51 92.4446C127.267 93.5215 128.645 96.738 128.645 96.738L167.473 98.3463L162.416 76.9797" stroke="#40576D" stroke-linecap="round" stroke-linejoin="round"/>
</svg>
