<svg width="301" height="300" viewBox="0 0 301 300" fill="none" xmlns="http://www.w3.org/2000/svg">
<path d="M106.667 71.2783L105.085 74.4837L101.548 74.9976L104.107 77.4925L103.503 81.0153L106.667 79.3521L109.831 81.0153L109.226 77.4925L111.786 74.9976L108.249 74.4837L106.667 71.2783Z" fill="#94C8FF"/>
<path d="M109.227 77.4925L111.786 74.9976" stroke="#40576D" stroke-linecap="round"/>
<path d="M106.667 71.2783L105.085 74.4837L101.548 74.9976L104.107 77.4925L103.503 81.0153L106.667 79.3521L109.831 81.0153" stroke="#40576D" stroke-linecap="round"/>
<path d="M92.5415 71.2783L90.9598 74.4837L87.4224 74.9976L89.9819 77.4925L89.3777 81.0153L92.5415 79.3521L95.7053 81.0153L95.1011 77.4925L97.6607 74.9976L94.1233 74.4837L92.5415 71.2783Z" fill="#94C8FF"/>
<path d="M95.1011 77.4925L97.6606 74.9976" stroke="#40576D" stroke-linecap="round"/>
<path d="M92.5415 71.2783L90.9598 74.4837L87.4224 74.9976L89.9819 77.4925L89.3777 81.0153L92.5415 79.3521L95.7053 81.0153" stroke="#40576D" stroke-linecap="round"/>
<path d="M78.4163 71.2783L76.8345 74.4837L73.2974 74.9976L75.8569 77.4925L75.2525 81.0153L78.4163 79.3521L81.58 81.0153L80.9758 77.4925L83.5354 74.9976L79.9983 74.4837L78.4163 71.2783Z" fill="#94C8FF"/>
<path d="M80.9758 77.4925L83.5354 74.9976" stroke="#40576D" stroke-linecap="round"/>
<path d="M78.4162 71.2783L76.8345 74.4837L73.2974 74.9976L75.8569 77.4925L75.2525 81.0153L78.4162 79.3521L81.58 81.0153" stroke="#40576D" stroke-linecap="round"/>
<path d="M64.291 71.2783L62.709 74.4837L59.1719 74.9976L61.7315 77.4925L61.1273 81.0153L64.291 79.3521L67.4548 81.0153L66.8506 77.4925L69.4099 74.9976L65.8728 74.4837L64.291 71.2783Z" fill="#94C8FF"/>
<path d="M66.8503 77.4925L69.4099 74.9976" stroke="#40576D" stroke-width="1.5" stroke-linecap="round"/>
<path d="M64.291 71.2783L62.709 74.4837L59.1719 74.9976L61.7315 77.4925L61.1273 81.0153L64.291 79.3521L67.4548 81.0153" stroke="#40576D" stroke-linecap="round"/>
<path d="M50.1655 71.2783L48.5838 74.4837L45.0466 74.9976L47.6059 77.4925L47.0017 81.0153L50.1655 79.3521L53.3293 81.0153L52.7251 77.4925L55.2847 74.9976L51.7476 74.4837L50.1655 71.2783Z" fill="#94C8FF"/>
<path d="M52.7251 77.4925L55.2846 74.9976" stroke="#40576D" stroke-linecap="round"/>
<path d="M50.1655 71.2783L48.5838 74.4837L45.0466 74.9976L47.6059 77.4925L47.0017 81.0153L50.1655 79.3521L53.3293 81.0153" stroke="#40576D" stroke-linecap="round"/>
<path d="M118.379 236.803H132.643V230.769H147.216V223.637L158.069 214.036H174.503V186.33H195.898V152.042L222.874 175.907V221.442H237.138V241.613H243.029V235.981H253.572V247.245H111.247V243.113L118.379 236.803Z" fill="#E8F3FF"/>
<path d="M260.393 247.245H104.426" stroke="#40576D" stroke-linecap="round"/>
<rect x="194.248" y="194.995" width="1.94867" height="1.72389" transform="rotate(-180 194.248 194.995)" fill="white"/>
<rect x="189.507" y="194.995" width="1.94865" height="1.72389" transform="rotate(-180 189.507 194.995)" fill="white"/>
<rect x="184.765" y="194.995" width="1.94865" height="1.72389" transform="rotate(-180 184.765 194.995)" fill="white"/>
<rect x="194.248" y="199.643" width="1.94867" height="1.72389" transform="rotate(-180 194.248 199.643)" fill="white"/>
<rect x="189.507" y="199.643" width="1.94865" height="1.72389" transform="rotate(-180 189.507 199.643)" fill="white"/>
<rect x="184.765" y="199.643" width="1.94865" height="1.72389" transform="rotate(-180 184.765 199.643)" fill="white"/>
<rect x="194.248" y="204.291" width="1.94867" height="1.72389" transform="rotate(-180 194.248 204.291)" fill="white"/>
<rect x="189.507" y="204.291" width="1.94865" height="1.72389" transform="rotate(-180 189.507 204.291)" fill="white"/>
<rect x="184.765" y="204.291" width="1.94865" height="1.72389" transform="rotate(-180 184.765 204.291)" fill="white"/>
<rect x="194.248" y="208.939" width="1.94867" height="1.72389" transform="rotate(-180 194.248 208.939)" fill="white"/>
<rect x="189.507" y="208.939" width="1.94865" height="1.72389" transform="rotate(-180 189.507 208.939)" fill="white"/>
<rect x="184.765" y="208.939" width="1.94865" height="1.72389" transform="rotate(-180 184.765 208.939)" fill="white"/>
<rect x="194.248" y="213.587" width="1.94867" height="1.72389" transform="rotate(-180 194.248 213.587)" fill="white"/>
<rect x="189.507" y="213.587" width="1.94865" height="1.72389" transform="rotate(-180 189.507 213.587)" fill="white"/>
<rect x="184.765" y="213.587" width="1.94865" height="1.72389" transform="rotate(-180 184.765 213.587)" fill="white"/>
<rect x="194.248" y="218.235" width="1.94867" height="1.72389" transform="rotate(-180 194.248 218.235)" fill="white"/>
<rect x="189.507" y="218.235" width="1.94865" height="1.72389" transform="rotate(-180 189.507 218.235)" fill="white"/>
<rect x="184.765" y="218.235" width="1.94865" height="1.72389" transform="rotate(-180 184.765 218.235)" fill="white"/>
<rect x="194.248" y="222.884" width="1.94867" height="1.72389" transform="rotate(-180 194.248 222.884)" fill="white"/>
<rect x="189.507" y="222.884" width="1.94865" height="1.72389" transform="rotate(-180 189.507 222.884)" fill="white"/>
<rect x="184.765" y="222.884" width="1.94865" height="1.72389" transform="rotate(-180 184.765 222.884)" fill="white"/>
<rect x="194.248" y="227.531" width="1.94867" height="1.72389" transform="rotate(-180 194.248 227.531)" fill="white"/>
<rect x="189.507" y="227.531" width="1.94865" height="1.72389" transform="rotate(-180 189.507 227.531)" fill="white"/>
<rect x="184.765" y="227.531" width="1.94865" height="1.72389" transform="rotate(-180 184.765 227.531)" fill="white"/>
<rect x="194.248" y="232.18" width="1.94867" height="1.72389" transform="rotate(-180 194.248 232.18)" fill="white"/>
<rect x="189.507" y="232.18" width="1.94865" height="1.72389" transform="rotate(-180 189.507 232.18)" fill="white"/>
<rect x="184.765" y="232.18" width="1.94865" height="1.72389" transform="rotate(-180 184.765 232.18)" fill="white"/>
<path d="M108.399 130.499C108.399 130.499 94.6972 177.842 88.8071 234.913L84.5247 237.762L103.218 246.675L127.106 181.082L130.963 128.111" fill="#E2E2E2"/>
<path d="M114.047 129.939L140.743 128.111L145.597 130.088L147.878 246.675H123.082L125.704 241.977L114.047 129.939Z" fill="#EDEEEF"/>
<path d="M119.665 73.8712V78.0851C119.665 81.3434 121.889 84.1808 125.053 84.9585L131.759 86.6067V70.1312L126.183 68.7608C124.613 68.3749 122.953 68.7321 121.68 69.7297C120.408 70.7273 119.665 72.2544 119.665 73.8712L119.665 73.8712Z" fill="#EDEEEF"/>
<path d="M119.665 78.085C119.665 81.3433 121.889 84.1807 125.053 84.9584L131.759 86.6065" stroke="#40576D" stroke-linecap="round"/>
<path d="M126.497 77.2488C126.675 77.2488 126.82 77.104 126.82 76.9254C126.82 76.7468 126.675 76.6021 126.497 76.6021C126.318 76.6021 126.173 76.7468 126.173 76.9254C126.173 77.104 126.318 77.2488 126.497 77.2488Z" fill="#40576D"/>
<path d="M121.53 77.2488C121.709 77.2488 121.853 77.104 121.853 76.9254C121.853 76.7468 121.709 76.6021 121.53 76.6021C121.351 76.6021 121.207 76.7468 121.207 76.9254C121.207 77.104 121.351 77.2488 121.53 77.2488Z" fill="#40576D"/>
<path d="M122.987 78.8546V73.8711H121.076" stroke="#40576D" stroke-linecap="round"/>
<path d="M127.106 73.8713H124.609" stroke="#40576D" stroke-linecap="round"/>
<path d="M120.102 73.0551H120.102" stroke="#40576D" stroke-width="1.5" stroke-linecap="round"/>
<path d="M130.962 76.4245V78.155C131.896 78.155 132.653 77.3983 132.653 76.4648C132.653 76.4129 132.65 76.3616 132.646 76.3109C132.551 75.2613 130.962 75.3706 130.962 76.4245Z" fill="#EDEEEF"/>
<path d="M130.962 78.1551C131.896 78.1551 132.653 77.3984 132.653 76.4648" stroke="#40576D" stroke-linecap="round"/>
<path d="M124.352 79.437C124.789 79.8741 125.498 79.8741 125.935 79.437" stroke="#97A9B8" stroke-linecap="round" stroke-linejoin="round"/>
<path d="M122.987 78.8587L124.079 79.127" stroke="#40576D" stroke-linecap="round"/>
<path d="M108.399 104.089V130.499L145.812 139.695V110.281C145.812 99.8518 138.692 90.7698 128.564 88.2805H128.564C123.707 87.0867 118.571 88.1919 114.635 91.2778C110.698 94.3636 108.399 99.0877 108.399 104.089V104.089Z" fill="#97A9B8"/>
<path d="M125.704 241.977L114.046 129.939" stroke="#40576D" stroke-linecap="round"/>
<path d="M119.409 76.9255L115.704 74.8941C115.704 74.8941 121.119 59.3901 132.234 66.2301C143.349 73.0701 131.759 80.8791 131.759 80.8791" stroke="#40576D" stroke-linecap="round"/>
<path d="M119.143 74.2481C119.143 74.2481 126.497 73.0626 129.058 69.4673C129.058 69.4673 128.016 74.673 131.104 75.9426" stroke="#40576D" stroke-linecap="round"/>
<path d="M137.053 92.3862C137.053 92.3862 149.733 101.303 155.205 113.748C155.205 113.748 153.267 90.854 156.003 87.092C157.447 85.1061 159.081 87.8021 159.081 87.8021C159.081 87.8021 166.263 84.812 166.491 85.952C166.719 87.092 162.501 91.424 162.501 91.424C162.501 91.424 168.657 119.764 163.869 127.858C159.081 135.952 134.799 119.81 134.799 119.81" stroke="#40576D" stroke-linecap="round"/>
<path d="M137.415 121.456C137.415 121.456 137.465 132.571 145.812 137.299V126.059L137.415 121.456Z" fill="#40576D"/>
<path d="M114.789 91.1605C114.789 91.1605 103.524 99.5082 101.396 107.911C101.396 107.911 97.9005 85.1679 95.9244 85.693C93.9484 86.2182 93.4925 87.8022 93.4925 87.8022C93.4925 87.8022 87.2605 84.5419 86.3485 85.6841C85.4365 86.8262 91.8204 93.0582 91.8204 93.0582C91.8204 93.0582 87.9584 120.237 92.4285 123.914C101.852 131.666 108.399 120.57 108.399 120.57" stroke="#40576D" stroke-linecap="round"/>
<path d="M196.221 88.3816L186.859 97.8875V88.3816H196.221Z" fill="#E2E2E2"/>
<path d="M186.86 97.8875V88.3816" stroke="#40576D" stroke-linecap="round"/>
<rect x="233.432" y="89.8918" width="61.9415" height="41.58" transform="rotate(-180 233.432 89.8918)" fill="#EDEEEF"/>
<path d="M171.49 48.3118V89.8918H186.859" stroke="#40576D" stroke-linecap="round"/>
<rect x="216.577" y="71.0056" width="3.80748" height="3.80746" transform="rotate(-180 216.577 71.0056)" fill="#97A9B8"/>
<rect x="204.365" y="71.0056" width="3.80748" height="3.80746" transform="rotate(-180 204.365 71.0056)" fill="#97A9B8"/>
<rect x="192.153" y="71.0056" width="3.80748" height="3.80746" transform="rotate(-180 192.153 71.0056)" fill="#97A9B8"/>
</svg>
