<svg width="300" height="300" viewBox="0 0 300 300" fill="none" xmlns="http://www.w3.org/2000/svg">
<path d="M117.879 236.803H132.142V230.769H146.716V223.637L157.569 214.036H174.003V186.33H195.397V152.042L222.374 175.907V221.442H236.638V241.613H242.529V235.981H253.072V247.245H110.747V243.113L117.879 236.803V236.803Z" fill="#F4F4F4"/>
<path d="M259.893 247.245H103.926" stroke="#40576D" stroke-width="0.45"/>
<rect x="193.748" y="194.995" width="1.94866" height="1.7239" transform="rotate(-180 193.748 194.995)" fill="white"/>
<rect x="189.007" y="194.995" width="1.94866" height="1.7239" transform="rotate(-180 189.007 194.995)" fill="white"/>
<rect x="184.265" y="194.995" width="1.94866" height="1.7239" transform="rotate(-180 184.265 194.995)" fill="white"/>
<rect x="193.748" y="199.643" width="1.94866" height="1.7239" transform="rotate(-180 193.748 199.643)" fill="white"/>
<rect x="189.007" y="199.643" width="1.94866" height="1.7239" transform="rotate(-180 189.007 199.643)" fill="white"/>
<rect x="184.265" y="199.643" width="1.94866" height="1.7239" transform="rotate(-180 184.265 199.643)" fill="white"/>
<rect x="193.748" y="204.291" width="1.94866" height="1.7239" transform="rotate(-180 193.748 204.291)" fill="white"/>
<rect x="189.007" y="204.291" width="1.94866" height="1.7239" transform="rotate(-180 189.007 204.291)" fill="white"/>
<rect x="184.265" y="204.291" width="1.94866" height="1.7239" transform="rotate(-180 184.265 204.291)" fill="white"/>
<rect x="193.748" y="208.939" width="1.94866" height="1.7239" transform="rotate(-180 193.748 208.939)" fill="white"/>
<rect x="189.007" y="208.939" width="1.94866" height="1.7239" transform="rotate(-180 189.007 208.939)" fill="white"/>
<rect x="184.265" y="208.939" width="1.94866" height="1.7239" transform="rotate(-180 184.265 208.939)" fill="white"/>
<rect x="193.748" y="213.587" width="1.94866" height="1.7239" transform="rotate(-180 193.748 213.587)" fill="white"/>
<rect x="189.007" y="213.587" width="1.94866" height="1.7239" transform="rotate(-180 189.007 213.587)" fill="white"/>
<rect x="184.265" y="213.587" width="1.94866" height="1.7239" transform="rotate(-180 184.265 213.587)" fill="white"/>
<rect x="193.748" y="218.235" width="1.94866" height="1.7239" transform="rotate(-180 193.748 218.235)" fill="white"/>
<rect x="189.007" y="218.235" width="1.94866" height="1.7239" transform="rotate(-180 189.007 218.235)" fill="white"/>
<rect x="184.265" y="218.235" width="1.94866" height="1.7239" transform="rotate(-180 184.265 218.235)" fill="white"/>
<rect x="193.748" y="222.884" width="1.94866" height="1.7239" transform="rotate(-180 193.748 222.884)" fill="white"/>
<rect x="189.007" y="222.884" width="1.94866" height="1.7239" transform="rotate(-180 189.007 222.884)" fill="white"/>
<rect x="184.265" y="222.884" width="1.94866" height="1.7239" transform="rotate(-180 184.265 222.884)" fill="white"/>
<rect x="193.748" y="227.531" width="1.94866" height="1.7239" transform="rotate(-180 193.748 227.531)" fill="white"/>
<rect x="189.007" y="227.531" width="1.94866" height="1.7239" transform="rotate(-180 189.007 227.531)" fill="white"/>
<rect x="184.265" y="227.531" width="1.94866" height="1.7239" transform="rotate(-180 184.265 227.531)" fill="white"/>
<rect x="193.748" y="232.179" width="1.94866" height="1.7239" transform="rotate(-180 193.748 232.179)" fill="white"/>
<rect x="189.007" y="232.179" width="1.94866" height="1.7239" transform="rotate(-180 189.007 232.179)" fill="white"/>
<rect x="184.265" y="232.179" width="1.94866" height="1.7239" transform="rotate(-180 184.265 232.179)" fill="white"/>
<path d="M107.899 130.499C107.899 130.499 94.197 177.842 88.3069 234.913L84.0244 237.762L102.718 246.675L126.606 181.082L130.462 128.111" fill="#E2E2E2"/>
<path d="M113.547 129.939L140.243 128.111L145.097 130.088L147.379 246.675H122.583L125.205 241.977L113.547 129.939V129.939Z" fill="#EDEEEF"/>
<path d="M119.165 73.8712V78.0851C119.165 81.3435 121.389 84.1808 124.554 84.9585L131.259 86.6067V70.1312L125.684 68.7608C124.113 68.3749 122.453 68.7321 121.181 69.7297C119.908 70.7273 119.165 72.2544 119.165 73.8712L119.165 73.8712Z" fill="#EDEEEF"/>
<path d="M119.165 78.085C119.165 81.3433 121.389 84.1807 124.554 84.9584L131.259 86.6065" stroke="#40576D" stroke-width="0.45"/>
<path d="M125.997 77.2488C126.176 77.2488 126.321 77.104 126.321 76.9254C126.321 76.7468 126.176 76.6021 125.997 76.6021C125.819 76.6021 125.674 76.7468 125.674 76.9254C125.674 77.104 125.819 77.2488 125.997 77.2488Z" fill="black"/>
<path d="M121.029 77.2488C121.208 77.2488 121.353 77.104 121.353 76.9254C121.353 76.7468 121.208 76.6021 121.029 76.6021C120.851 76.6021 120.706 76.7468 120.706 76.9254C120.706 77.104 120.851 77.2488 121.029 77.2488Z" fill="black"/>
<path d="M122.487 78.8546V73.8711H120.576" stroke="#40576D" stroke-width="0.45"/>
<path d="M126.606 73.871H124.109" stroke="#40576D" stroke-width="0.45"/>
<path d="M130.463 76.4245V78.155C131.396 78.155 132.153 77.3983 132.153 76.4648C132.153 76.4129 132.151 76.3616 132.146 76.3109C132.052 75.2613 130.463 75.3706 130.463 76.4245Z" fill="#EDEEEF"/>
<path d="M130.463 78.1551C131.396 78.1551 132.153 77.3984 132.153 76.4648" stroke="#40576D" stroke-width="0.45"/>
<path d="M123.852 79.4368C124.289 79.8739 124.997 79.8739 125.434 79.4368" stroke="#97A9B8" stroke-width="0.45" stroke-linecap="round" stroke-linejoin="round"/>
<path d="M122.487 78.8584L123.579 79.1268" stroke="#40576D" stroke-width="0.45" stroke-linecap="round"/>
<path d="M107.899 104.089V130.499L145.313 139.695V110.281C145.313 99.8518 138.192 90.7698 128.064 88.2805H128.064C123.207 87.0867 118.071 88.1919 114.135 91.2778C110.199 94.3636 107.899 99.0877 107.899 104.089V104.089Z" fill="#97A9B8"/>
<path d="M125.205 241.977L113.547 129.939" stroke="#40576D" stroke-width="0.45"/>
<path d="M118.908 76.9255L115.203 74.8941C115.203 74.8941 120.618 59.3901 131.733 66.2301C142.848 73.0701 131.259 80.8791 131.259 80.8791" stroke="#40576D" stroke-width="0.45"/>
<path d="M118.643 74.2481C118.643 74.2481 125.997 73.0626 128.558 69.4673C128.558 69.4673 127.516 74.673 130.603 75.9426" stroke="#40576D" stroke-width="0.45"/>
<path d="M136.554 92.3862C136.554 92.3862 149.233 101.303 154.705 113.748C154.705 113.748 152.767 90.854 155.503 87.092C156.947 85.1061 158.581 87.8021 158.581 87.8021C158.581 87.8021 165.763 84.812 165.991 85.952C166.219 87.092 162.001 91.424 162.001 91.424C162.001 91.424 168.157 119.764 163.369 127.858C158.581 135.952 134.299 119.81 134.299 119.81" stroke="#40576D" stroke-width="0.45"/>
<path d="M136.915 121.456C136.915 121.456 136.966 132.57 145.313 137.299V126.059L136.915 121.456Z" fill="black"/>
<path d="M114.289 91.1602C114.289 91.1602 103.025 99.5079 100.897 107.911C100.897 107.911 97.4009 85.1676 95.4249 85.6928C93.4489 86.218 92.9929 87.802 92.9929 87.802C92.9929 87.802 86.7609 84.5417 85.8489 85.6838C84.9369 86.826 91.3209 93.058 91.3209 93.058C91.3209 93.058 87.4589 120.237 91.9289 123.914C101.353 131.666 107.9 120.57 107.9 120.57" stroke="#40576D" stroke-width="0.45"/>
<path d="M195.721 88.3816L186.359 97.8875V88.3816H195.721V88.3816Z" fill="#BEDDFF"/>
<path d="M186.359 97.8875V88.3816" stroke="#40576D" stroke-width="0.45"/>
<rect x="232.933" y="89.8918" width="61.9415" height="41.58" transform="rotate(-180 232.933 89.8918)" fill="#BEDDFF"/>
<path d="M170.99 48.3118V89.8918H186.359" stroke="#40576D" stroke-width="0.45"/>
<rect x="216.077" y="71.0056" width="3.80747" height="3.80747" transform="rotate(-180 216.077 71.0056)" fill="#97A9B8"/>
<rect x="203.865" y="71.0056" width="3.80747" height="3.80747" transform="rotate(-180 203.865 71.0056)" fill="#97A9B8"/>
<rect x="191.653" y="71.0056" width="3.80747" height="3.80747" transform="rotate(-180 191.653 71.0056)" fill="#97A9B8"/>
</svg>
