<svg width="301" height="300" viewBox="0 0 301 300" fill="none" xmlns="http://www.w3.org/2000/svg">
<path d="M140.076 110.128C140.076 110.128 107.182 233.353 99.7795 276.844L94.2275 279.62L130.778 288.873L160.851 207.444L173.566 111.33" fill="#97A9B8"/>
<path d="M167.55 156.807C164.645 148.04 160.904 142.762 156.821 142.762C147.573 142.762 140.076 169.835 140.076 203.229C140.076 221.221 142.253 237.375 145.707 248.451L160.852 207.444L167.55 156.807Z" fill="#40576D" stroke="#40576D"/>
<path d="M149.619 112.473C149.619 112.473 142.4 230.296 162.788 286.081L158.53 292.338H194.793C194.793 292.338 198.755 142.474 198.755 110.128L149.619 112.473Z" fill="#97A9B8"/>
<path d="M177.171 21.3126V36.6248L158.202 41.2871V15.447L177.171 10.7847V21.3126Z" fill="#EDEEEF"/>
<path d="M166.455 26.6103C166.736 26.6103 166.963 26.3832 166.963 26.1031C166.963 25.823 166.736 25.5959 166.455 25.5959C166.175 25.5959 165.948 25.823 165.948 26.1031C165.948 26.3832 166.175 26.6103 166.455 26.6103Z" fill="black" stroke="#40576D"/>
<path d="M174.245 26.6103C174.526 26.6103 174.753 26.3832 174.753 26.1031C174.753 25.823 174.526 25.5959 174.245 25.5959C173.965 25.5959 173.738 25.823 173.738 26.1031C173.738 26.3832 173.965 26.6103 174.245 26.6103Z" fill="black" stroke="#40576D"/>
<path d="M171.96 29.1275V21.3115" stroke="#40576D" stroke-linecap="round" stroke-linejoin="round"/>
<path d="M165.5 21.3121H169.416" stroke="#40576D" stroke-linecap="round" stroke-linejoin="round"/>
<path d="M159.452 25.317V28.0312C157.988 28.0312 156.801 26.8443 156.801 25.3802C156.801 25.2989 156.804 25.2184 156.812 25.1389C156.96 23.4927 159.452 23.6641 159.452 25.317Z" fill="#EDEEEF"/>
<path d="M159.452 28.0312C157.988 28.0312 156.801 26.8443 156.801 25.3801" stroke="#40576D" stroke-linecap="round" stroke-linejoin="round"/>
<path d="M170.248 31.055C168.766 31.055 167.564 29.8537 167.564 28.3718" stroke="#97A9B8" stroke-linecap="round" stroke-linejoin="round"/>
<path d="M177.171 36.6243L158.202 41.2864" stroke="#40576D" stroke-linecap="round" stroke-linejoin="round"/>
<path d="M171.961 29.135L170.248 29.5559" stroke="#40576D" stroke-linecap="round" stroke-linejoin="round"/>
<path d="M140.076 68.7068V110.128L198.755 124.55V78.4183C198.755 62.0607 187.588 47.8165 171.703 43.9122H171.703C164.085 42.0399 156.029 43.7733 149.856 48.6132C143.682 53.4531 140.076 60.8622 140.076 68.7068Z" fill="#EDEEEF"/>
<path d="M149.619 112.473C149.619 112.473 142.4 230.295 162.788 286.08" stroke="#40576D" stroke-linecap="round" stroke-linejoin="round"/>
<path d="M178.195 22.1637C170.507 24.1305 163.981 17.7832 163.981 17.7832C163.981 17.7832 163.144 23.3259 160.673 23.4153" stroke="#40576D" stroke-linecap="round" stroke-linejoin="round"/>
<path d="M177.171 27.17C177.171 27.17 181.592 19.3923 180.52 14.5648C180.52 14.5648 175.959 7.59167 165.5 7.77047C155.041 7.94927 154.148 18.1226 158.126 23.9873" stroke="#40576D" stroke-linecap="round" stroke-linejoin="round"/>
<path d="M161.746 54.9728L159.451 55.1516L153.521 51.218L152.448 60.8731L159.451 57.8335L160.673 57.6547L167.686 61.9459L168.314 51.218L161.746 54.9728Z" fill="#BEDDFF" stroke="#40576D"/>
<path d="M183.703 49.3792C183.703 49.3792 236.126 92.3416 187.851 144.908L176.485 135.354L184.99 97.1436L177.171 79.8258" stroke="#40576D" stroke-linecap="round" stroke-linejoin="round"/>
<path d="M187.851 144.908L167.458 127.766" stroke="#40576D" stroke-linecap="round" stroke-linejoin="round"/>
<path d="M148.927 49.3792C148.927 49.3792 136.714 58.6085 128.371 88.1697C128.371 88.1697 112.16 58.6085 109.776 57.8933C107.392 57.1781 106.677 59.5621 106.677 59.5621C106.677 59.5621 92.3728 56.9397 92.8496 60.5157C93.3263 64.0916 102.862 66.9524 102.862 66.9524C102.862 66.9524 97.7769 132.806 138.463 116.209" stroke="#40576D" stroke-linecap="round" stroke-linejoin="round"/>
</svg>
