<svg width="279" height="164" viewBox="0 0 279 164" fill="none" xmlns="http://www.w3.org/2000/svg">
<g clip-path="url(#clip0_18_11059)">
<path d="M273.789 138.532H71.3957C70.0141 138.531 68.6895 137.98 67.7126 137C66.7357 136.021 66.1861 134.693 66.1846 133.308V8.19832C66.1857 7.18362 66.5883 6.21081 67.304 5.4933C68.0197 4.77579 68.9901 4.37217 70.0022 4.371H275.117C276.146 4.37218 277.134 4.78276 277.862 5.51268C278.59 6.24259 278.999 7.23223 279 8.26448V133.308C278.999 134.693 278.449 136.021 277.472 137C276.495 137.98 275.171 138.531 273.789 138.532Z" fill="#F2F2F2"/>
<path d="M266.406 131.134H77.7802C75.0151 131.134 72.7656 129.022 72.7656 126.427V17.4794C72.7656 15.5544 74.4325 13.9882 76.4815 13.9882H267.643C269.726 13.9882 271.42 15.5802 271.42 17.5369V126.427C271.42 129.022 269.171 131.134 266.406 131.134Z" fill="white"/>
<path d="M278.928 7.89949H66.1113V5.23984C66.1133 3.8502 66.6651 2.5181 67.6456 1.53579C68.6261 0.553466 69.9552 0.00114724 71.3414 0H273.698C275.084 0.00114054 276.413 0.553455 277.394 1.53578C278.374 2.5181 278.926 3.8502 278.928 5.23984V7.89949Z" fill="#CCCCCC"/>
<path d="M75.6155 5.31382C76.3627 5.31382 76.9683 4.70664 76.9683 3.95765C76.9683 3.20865 76.3627 2.60147 75.6155 2.60147C74.8684 2.60147 74.2627 3.20865 74.2627 3.95765C74.2627 4.70664 74.8684 5.31382 75.6155 5.31382Z" fill="white"/>
<path d="M80.7513 5.31382C81.4984 5.31382 82.1041 4.70664 82.1041 3.95765C82.1041 3.20865 81.4984 2.60147 80.7513 2.60147C80.0041 2.60147 79.3984 3.20865 79.3984 3.95765C79.3984 4.70664 80.0041 5.31382 80.7513 5.31382Z" fill="white"/>
<path d="M85.886 5.31382C86.6332 5.31382 87.2388 4.70664 87.2388 3.95765C87.2388 3.20865 86.6332 2.60147 85.886 2.60147C85.1389 2.60147 84.5332 3.20865 84.5332 3.95765C84.5332 4.70664 85.1389 5.31382 85.886 5.31382Z" fill="white"/>
<path d="M107.887 110.871H60.8795C59.4142 110.869 58.0093 110.285 56.9732 109.246C55.937 108.207 55.3542 106.799 55.3525 105.33V49.558C55.3538 48.4594 55.7896 47.4061 56.5646 46.6292C57.3395 45.8523 58.3901 45.4153 59.486 45.4141H109.214C110.327 45.4153 111.395 45.8593 112.182 46.6486C112.969 47.4379 113.412 48.508 113.414 49.6241V105.33C113.412 106.799 112.829 108.207 111.793 109.246C110.757 110.285 109.352 110.869 107.887 110.871Z" fill="white"/>
<path d="M107.887 110.871H60.8795C59.4142 110.869 58.0093 110.285 56.9732 109.246C55.937 108.207 55.3542 106.799 55.3525 105.33V49.558C55.3538 48.4594 55.7896 47.4061 56.5646 46.6292C57.3395 45.8523 58.3901 45.4153 59.486 45.4141H109.214C110.327 45.4153 111.395 45.8593 112.182 46.6486C112.969 47.4379 113.412 48.508 113.414 49.6241V105.33C113.412 106.799 112.829 108.207 111.793 109.246C110.757 110.285 109.352 110.869 107.887 110.871ZM59.486 46.0473C58.5576 46.0484 57.6675 46.4186 57.011 47.0767C56.3545 47.7349 55.9852 48.6272 55.9842 49.558V105.33C55.9856 106.631 56.5019 107.879 57.4196 108.799C58.3373 109.719 59.5816 110.236 60.8795 110.238H107.887C109.184 110.236 110.429 109.719 111.346 108.799C112.264 107.879 112.78 106.631 112.782 105.33V49.6241C112.781 48.6758 112.405 47.7667 111.736 47.0961C111.067 46.4256 110.16 46.0484 109.214 46.0473H59.486Z" fill="#3F3D56"/>
<path d="M84.383 81.0706C89.742 81.0706 94.0863 76.7155 94.0863 71.3432C94.0863 65.9709 89.742 61.6158 84.383 61.6158C79.024 61.6158 74.6797 65.9709 74.6797 71.3432C74.6797 76.7155 79.024 81.0706 84.383 81.0706Z" fill="black"/>
<path d="M99.9281 94.6691H68.8379V94.5699C68.8411 91.7014 69.9792 88.9514 72.0025 86.9231C74.0258 84.8948 76.769 83.7539 79.6304 83.7506H89.1357C91.997 83.7539 94.7402 84.8948 96.7635 86.9231C98.7868 88.9514 99.9249 91.7014 99.9281 94.5699V94.6691Z" fill="black"/>
<path d="M57.277 89.7241C56.8624 89.9336 56.407 90.0494 55.943 90.0634C55.4789 90.0774 55.0174 89.9892 54.591 89.8051C54.1646 89.6209 53.7836 89.3453 53.475 88.9976C53.1663 88.6499 52.9375 88.2386 52.8045 87.7926L41.5293 87.299L44.9685 82.5367L55.1484 83.7355C55.9106 83.5613 56.71 83.6734 57.3951 84.0506C58.0803 84.4278 58.6037 85.0438 58.8661 85.782C59.1285 86.5202 59.1116 87.3292 58.8187 88.0558C58.5259 88.7823 57.9773 89.3759 57.277 89.7241Z" fill="#FFB8B8"/>
<path d="M25.9727 85.2114L19.7722 73.2401C18.9178 71.5951 18.5408 69.7428 18.684 67.8937C18.8271 66.0447 19.4847 64.2729 20.582 62.7797C20.8029 62.4841 21.0373 62.1966 21.2787 61.9253C22.2636 60.8164 23.491 59.951 24.865 59.3967C26.239 58.8425 27.7223 58.6144 29.1988 58.7304C30.7251 58.8344 32.2068 59.2909 33.5279 60.0643C34.849 60.8377 35.9737 61.907 36.814 63.1886L39.7917 67.7009C40.0965 67.9738 44.1952 71.7654 42.6705 76.6991L42.4084 81.4302C42.3901 81.7377 42.2735 82.031 42.0758 82.2667C41.8781 82.5025 41.6098 82.668 41.3108 82.7389L27.5557 85.9425C27.2483 86.0145 26.9257 85.9816 26.639 85.8492C26.3524 85.7168 26.1179 85.4924 25.9727 85.2114Z" fill="black"/>
<path d="M21.6237 107.93C21.2999 107.597 21.053 107.196 20.9003 106.756C20.7477 106.317 20.6931 105.849 20.7403 105.386C20.7876 104.923 20.9355 104.476 21.1737 104.076C21.4119 103.677 21.7346 103.335 22.119 103.074L19.2041 92.1435L24.7679 94.0028L26.683 104.097C27.0775 104.774 27.2108 105.572 27.0576 106.34C26.9044 107.109 26.4753 107.794 25.8517 108.267C25.228 108.739 24.4532 108.966 23.674 108.904C22.8947 108.842 22.1652 108.495 21.6237 107.93Z" fill="#FFB8B8"/>
<path d="M20.2568 102.759C20.0525 102.659 19.8751 102.512 19.7398 102.329C19.6044 102.147 19.5151 101.934 19.4795 101.709L17.5601 83.0415C17.3018 81.5258 17.2636 79.9806 17.4468 78.4539L19.7476 64.4855C19.8436 63.6702 20.2496 62.9235 20.881 62.4008C21.5125 61.8781 22.3208 61.6198 23.1375 61.6797C23.5671 61.7105 23.986 61.8282 24.3689 62.0258C24.7518 62.2233 25.0908 62.4967 25.3654 62.8293C25.6399 63.162 25.8444 63.5469 25.9663 63.961C26.0883 64.375 26.1253 64.8096 26.075 65.2384L24.1966 81.262L26.3477 100.161C26.3811 100.445 26.328 100.732 26.1956 100.985C26.0632 101.238 25.8576 101.445 25.6057 101.579L21.5365 102.744C21.3396 102.848 21.1209 102.903 20.8984 102.906C20.676 102.908 20.4561 102.858 20.2568 102.759Z" fill="black"/>
<path d="M51.0855 159.685L54.8896 158.962L53.9172 143.908L48.3027 144.976L51.0855 159.685Z" fill="#FFB8B8"/>
<path d="M49.8789 158.625L57.3706 157.201C57.9976 157.081 58.6422 157.087 59.2669 157.217C59.8917 157.348 60.4847 157.6 61.0121 157.961C61.5395 158.321 61.991 158.781 62.3407 159.317C62.6905 159.852 62.9317 160.451 63.0506 161.079L63.08 161.235L50.8138 163.567L49.8789 158.625Z" fill="#2F2E41"/>
<path d="M17.4215 159.804L21.2936 159.804L23.1355 144.832L17.4209 144.832L17.4215 159.804Z" fill="#FFB8B8"/>
<path d="M16.4336 158.537L24.0588 158.536H24.0592C24.6973 158.536 25.3292 158.662 25.9188 158.907C26.5084 159.152 27.0441 159.511 27.4953 159.963C27.9466 160.416 28.3045 160.953 28.5487 161.544C28.7929 162.135 28.9186 162.768 28.9186 163.408V163.566L16.4338 163.567L16.4336 158.537Z" fill="#2F2E41"/>
<path d="M28.7502 55.3725C33.0343 55.3725 36.5072 51.891 36.5072 47.5963C36.5072 43.3015 33.0343 39.82 28.7502 39.82C24.4661 39.82 20.9932 43.3015 20.9932 47.5963C20.9932 51.891 24.4661 55.3725 28.7502 55.3725Z" fill="#FFB8B8"/>
<path d="M16.7845 153.787C16.6512 153.643 16.5489 153.473 16.484 153.287C16.419 153.102 16.3929 152.905 16.4071 152.709L21.6869 104.663C21.6415 104.213 20.9244 96.0552 26.743 85.6169L26.7751 85.5593L42.3668 81.2249L44.0908 88.5153L55.6446 151.904C55.686 152.27 55.5838 152.638 55.3595 152.93C55.1353 153.223 54.8065 153.416 54.4428 153.469L50.4212 154.074C50.0816 154.125 49.7349 154.051 49.4455 153.866C49.156 153.68 48.9432 153.396 48.8465 153.066L35.2307 110.314C35.2022 110.216 35.1427 110.129 35.0611 110.067C34.9795 110.006 34.8801 109.972 34.7779 109.972C34.6756 109.971 34.576 110.004 34.4938 110.065C34.4116 110.126 34.3513 110.212 34.3218 110.31L23.1516 153.213C23.0647 153.509 22.8849 153.769 22.639 153.954C22.3931 154.139 22.0943 154.239 21.7868 154.24H17.8242C17.6292 154.24 17.4363 154.2 17.2575 154.122C17.0786 154.044 16.9177 153.93 16.7845 153.787Z" fill="#2F2E41"/>
<path d="M49.7366 88.8586L32.937 85.971C31.845 85.7872 30.8337 85.2771 30.0357 84.5076C29.2376 83.738 28.6899 82.7449 28.4643 81.6581L24.9564 65.0491C24.8203 64.4045 24.826 63.7378 24.9733 63.0956C25.1205 62.4534 25.4058 61.8512 25.8091 61.3308C26.2124 60.8105 26.7241 60.3846 27.3084 60.0829C27.8928 59.7812 28.5358 59.6109 29.1925 59.5839C30.3282 59.5426 31.4381 59.9294 32.3032 60.6682C33.1682 61.4069 33.7257 62.4439 33.8656 63.5745L35.626 78.3786L50.4461 82.2389C50.7263 82.3356 50.9694 82.5178 51.1413 82.76C51.3131 83.0021 51.4051 83.2921 51.4043 83.5893L51.398 87.458C51.3977 87.6652 51.3522 87.8699 51.2648 88.0577C51.1774 88.2455 51.0502 88.4119 50.8919 88.5453C50.7337 88.6787 50.5484 88.7758 50.3488 88.8299C50.1493 88.8841 49.9403 88.8939 49.7366 88.8586Z" fill="black"/>
<path d="M35.3492 45.7911C36.584 45.5352 37.7845 44.7116 38.1144 43.4916C38.4025 42.4259 37.9762 41.2768 37.3089 40.3984C36.4388 39.3113 35.2312 38.5471 33.8781 38.2271C32.525 37.9072 31.104 38.0499 29.841 38.6325C29.9602 38.0041 29.4887 37.3842 28.9085 37.118C28.3079 36.8957 27.6657 36.8092 27.0278 36.8648C25.0097 36.8931 22.8611 36.9606 21.1925 38.0989C19.8619 39.0065 19.0171 40.4989 18.5794 42.0515C18.1417 43.604 18.0702 45.2332 18.0014 46.8451C17.8808 49.6702 18.9849 55.6162 18.9849 55.6162C18.9849 55.6162 22.8896 56.6924 24.6002 57.191C26.4383 57.7267 29.5398 58.2625 31.378 58.7983C31.8485 58.9354 32.4785 59.0124 32.715 58.5822C32.9037 58.2387 32.6854 57.8204 32.4659 57.4958C31.4994 56.0666 30.3921 54.7187 29.6485 53.1612C28.905 51.6037 28.557 49.753 29.1955 48.1493C29.8339 46.5456 34.1144 46.047 35.3492 45.7911Z" fill="#2F2E41"/>
<path d="M157.144 100.51H258.157C259.498 100.51 260.783 99.9759 261.731 99.0259C262.678 98.0758 263.211 96.7873 263.211 95.4438V49.6784C263.211 48.3349 262.678 47.0464 261.731 46.0964C260.783 45.1464 259.498 44.6127 258.157 44.6127H157.144C155.804 44.6127 154.519 45.1464 153.571 46.0964C152.623 47.0464 152.091 48.3349 152.091 49.6784V95.4438C152.091 96.7873 152.623 98.0758 153.571 99.0259C154.519 99.9759 155.804 100.51 157.144 100.51Z" fill="#F2F2F2"/>
<path d="M247.129 75.094H166.593C165.923 75.094 165.28 74.8272 164.806 74.3522C164.333 73.8771 164.066 73.2329 164.066 72.5611C164.066 71.8894 164.333 71.2451 164.806 70.7701C165.28 70.2951 165.923 70.0283 166.593 70.0283H247.129C247.799 70.0283 248.441 70.2951 248.915 70.7701C249.389 71.2451 249.655 71.8894 249.655 72.5611C249.655 73.2329 249.389 73.8771 248.915 74.3522C248.441 74.8272 247.799 75.094 247.129 75.094Z" fill="white"/>
<path d="M247.129 85.8588H166.593C165.923 85.8588 165.28 85.5919 164.806 85.1169C164.333 84.6419 164.066 83.9976 164.066 83.3259C164.066 82.6541 164.333 82.0099 164.806 81.5349C165.28 81.0599 165.923 80.793 166.593 80.793H247.129C247.799 80.793 248.441 81.0599 248.915 81.5349C249.389 82.0099 249.655 82.6541 249.655 83.3259C249.655 83.9976 249.389 84.6419 248.915 85.1169C248.441 85.5919 247.799 85.8588 247.129 85.8588Z" fill="white"/>
<path d="M232.917 64.3293H166.593C165.923 64.3293 165.28 64.0624 164.806 63.5874C164.333 63.1124 164.066 62.4681 164.066 61.7964C164.066 61.1246 164.333 60.4804 164.806 60.0054C165.28 59.5303 165.923 59.2635 166.593 59.2635H232.917C233.587 59.2635 234.229 59.5303 234.703 60.0054C235.177 60.4804 235.443 61.1246 235.443 61.7964C235.443 62.4681 235.177 63.1124 234.703 63.5874C234.229 64.0624 233.587 64.3293 232.917 64.3293Z" fill="white"/>
<path d="M75.7983 164H0.315826C0.232064 164 0.151732 163.967 0.0925031 163.907C0.0332742 163.848 0 163.767 0 163.683C0 163.599 0.0332742 163.519 0.0925031 163.46C0.151732 163.4 0.232064 163.367 0.315826 163.367H75.7983C75.8821 163.367 75.9624 163.4 76.0216 163.46C76.0808 163.519 76.1141 163.599 76.1141 163.683C76.1141 163.767 76.0808 163.848 76.0216 163.907C75.9624 163.967 75.8821 164 75.7983 164Z" fill="#CCCCCC"/>
</g>
<defs>
<clipPath id="clip0_18_11059">
<rect width="279" height="164" fill="white"/>
</clipPath>
</defs>
</svg>
