<svg width="301" height="300" viewBox="0 0 301 300" fill="none" xmlns="http://www.w3.org/2000/svg">
<path d="M123.679 110.91C123.679 110.91 102.269 184.884 93.0657 274.058L86.3743 278.51L115.583 292.437L152.908 189.947L158.934 107.178" fill="#E2E2E2"/>
<path d="M132.503 110.035L174.216 107.178L181.801 110.267L185.366 292.437H146.621L150.718 285.095L132.503 110.035Z" fill="#EDEEEF"/>
<path d="M141.281 22.4277V29.012C141.281 34.1032 144.757 38.5366 149.701 39.7518L160.179 42.3271V16.5839L151.467 14.4426C149.013 13.8396 146.419 14.3978 144.431 15.9565C142.443 17.5152 141.281 19.9013 141.281 22.4277V22.4277Z" fill="#EDEEEF"/>
<path d="M141.281 29.012C141.281 34.1032 144.757 38.5366 149.701 39.7518L160.179 42.327" stroke="#40576D" stroke-linecap="round" stroke-linejoin="round"/>
<path d="M151.956 27.7055C152.235 27.7055 152.461 27.4793 152.461 27.2002C152.461 26.9212 152.235 26.6949 151.956 26.6949C151.677 26.6949 151.451 26.9212 151.451 27.2002C151.451 27.4793 151.677 27.7055 151.956 27.7055Z" fill="black"/>
<path d="M144.196 27.7055C144.475 27.7055 144.701 27.4793 144.701 27.2002C144.701 26.9212 144.475 26.6949 144.196 26.6949C143.917 26.6949 143.69 26.9212 143.69 27.2002C143.69 27.4793 143.917 27.7055 144.196 27.7055Z" fill="black"/>
<path d="M146.472 30.2144V22.4277H143.486" stroke="#40576D" stroke-linecap="round" stroke-linejoin="round"/>
<path d="M152.908 22.4276H149.007" stroke="#40576D" stroke-linecap="round" stroke-linejoin="round"/>
<path d="M158.934 26.4175V29.1215C160.393 29.1215 161.575 27.9391 161.575 26.4804C161.575 26.3994 161.572 26.3193 161.564 26.24C161.416 24.6 158.934 24.7708 158.934 26.4175Z" fill="#EDEEEF"/>
<path d="M158.934 29.1216C160.393 29.1216 161.575 27.9391 161.575 26.4805" stroke="#40576D" stroke-linecap="round" stroke-linejoin="round"/>
<path d="M148.605 31.1243C148.933 31.4522 149.378 31.6365 149.842 31.6365C150.306 31.6365 150.751 31.4522 151.078 31.1243" stroke="#97A9B8" stroke-linecap="round" stroke-linejoin="round"/>
<path d="M146.472 30.2207L148.179 30.64" stroke="#40576D" stroke-linecap="round" stroke-linejoin="round"/>
<path d="M123.679 69.644V110.91L182.138 125.278V79.3191C182.138 63.0228 171.012 48.832 155.187 44.9424H155.187C147.598 43.0771 139.572 44.804 133.422 49.6258C127.271 54.4475 123.679 61.8289 123.679 69.644V69.644Z" fill="#97A9B8"/>
<path d="M150.718 285.095L132.503 110.035" stroke="#40576D" stroke-linecap="round" stroke-linejoin="round"/>
<path d="M140.881 27.2002L135.092 24.0261C135.092 24.0261 143.553 -0.199153 160.92 10.4885C178.288 21.1761 160.179 33.3778 160.179 33.3778" stroke="#40576D" stroke-linecap="round" stroke-linejoin="round"/>
<path d="M140.465 23.0167C140.465 23.0167 151.957 21.1644 155.959 15.5466C155.959 15.5466 154.331 23.6807 159.154 25.6643" stroke="#40576D" stroke-linecap="round" stroke-linejoin="round"/>
<path d="M168.452 51.3579C168.452 51.3579 188.263 65.29 196.813 84.7366C196.813 84.7366 193.785 48.9638 198.06 43.0857C200.317 39.9826 202.869 44.1951 202.869 44.1951C202.869 44.1951 214.091 39.5231 214.448 41.3044C214.804 43.0857 208.213 49.8545 208.213 49.8545C208.213 49.8545 217.832 94.1362 210.351 106.783C202.869 119.43 164.928 94.2081 164.928 94.2081" stroke="#40576D" stroke-linecap="round" stroke-linejoin="round"/>
<path d="M169.016 96.7798C169.016 96.7798 169.095 114.147 182.138 121.535V103.972L169.016 96.7798Z" fill="#40576D"/>
<path d="M133.662 49.4423C133.662 49.4423 116.062 62.4858 112.737 75.6156C112.737 75.6156 107.274 40.0788 104.187 40.8994C101.099 41.72 100.387 44.1951 100.387 44.1951C100.387 44.1951 90.6493 39.1008 89.2243 40.8854C87.7993 42.67 97.7744 52.4076 97.7744 52.4076C97.7744 52.4076 91.7399 94.8753 98.7244 100.621C113.45 112.733 123.679 95.3956 123.679 95.3956" stroke="#40576D" stroke-linecap="round" stroke-linejoin="round"/>
</svg>
