<svg width="301" height="300" viewBox="0 0 301 300" fill="none" xmlns="http://www.w3.org/2000/svg">
<path d="M171.243 124.789C171.243 124.789 212.249 198.249 208.678 275.393L214.249 279.572L185.678 292.367L151.392 203.335L145.38 174.57L145.456 108.271" fill="#E2E2E2"/>
<path d="M163.517 109.508L121.699 106.644H114.095V292.367H152.936L148.829 285.007L163.517 109.508Z" fill="#EDEEEF"/>
<path d="M148.829 285.007L163.517 109.508" stroke="#40576D" stroke-linecap="round" stroke-linejoin="round"/>
<path d="M126.435 21.681V28.2818C126.435 33.3857 129.92 37.8303 134.876 39.0485L145.38 41.6302V15.8225L136.646 13.6758C134.187 13.0713 131.586 13.631 129.593 15.1936C127.6 16.7562 126.435 19.1483 126.435 21.681V21.681Z" fill="#EDEEEF"/>
<path d="M126.435 28.2817C126.435 33.3857 129.92 37.8303 134.876 39.0485L145.38 41.6302" stroke="#40576D" stroke-linecap="round" stroke-linejoin="round"/>
<path d="M137.137 26.9721C137.417 26.9721 137.644 26.7453 137.644 26.4655C137.644 26.1858 137.417 25.959 137.137 25.959C136.857 25.959 136.631 26.1858 136.631 26.4655C136.631 26.7453 136.857 26.9721 137.137 26.9721Z" fill="#40576D"/>
<path d="M129.357 26.9721C129.637 26.9721 129.864 26.7453 129.864 26.4655C129.864 26.1858 129.637 25.959 129.357 25.959C129.077 25.959 128.851 26.1858 128.851 26.4655C128.851 26.7453 129.077 26.9721 129.357 26.9721Z" fill="#40576D"/>
<path d="M131.64 29.4871V21.6809H127.729" stroke="#40576D" stroke-linecap="round" stroke-linejoin="round"/>
<path d="M138.091 21.681H134.181" stroke="#40576D" stroke-linecap="round" stroke-linejoin="round"/>
<path d="M144.133 25.6805V28.3914C145.595 28.3914 146.78 27.206 146.78 25.7437C146.78 25.6624 146.777 25.5821 146.769 25.5027C146.621 23.8585 144.133 24.0297 144.133 25.6805Z" fill="#EDEEEF"/>
<path d="M144.133 28.3916C145.595 28.3916 146.78 27.2062 146.78 25.7439" stroke="#40576D" stroke-linecap="round" stroke-linejoin="round"/>
<path d="M133.778 30.3992C134.107 30.728 134.553 30.9127 135.018 30.9127C135.483 30.9127 135.928 30.728 136.257 30.3992" stroke="#97A9B8" stroke-linecap="round" stroke-linejoin="round"/>
<path d="M131.64 29.4934L133.35 29.9138" stroke="#40576D" stroke-linecap="round" stroke-linejoin="round"/>
<path d="M126.435 25.584C126.435 25.584 119.491 12.7829 132.495 10.64C132.495 10.64 138.445 3.4078 149.784 11.89C161.124 20.3723 166.302 24.7473 166.302 24.7473C166.302 24.7473 159.695 37.1582 144.963 37.426" stroke="#40576D" stroke-linecap="round" stroke-linejoin="round"/>
<path d="M126.749 21.681C126.749 21.681 130.365 22.2028 133.133 16.9795C133.133 16.9795 137.731 20.2385 141.302 19.5242L144.133 24.8814" stroke="#40576D" stroke-linecap="round" stroke-linejoin="round"/>
<path d="M112.638 69.0156V110.385L171.243 124.789V78.715C171.243 62.3778 160.09 48.1515 144.225 44.2521H144.225C136.617 42.3821 128.571 44.1134 122.405 48.9472C116.24 53.781 112.638 61.1809 112.638 69.0156V69.0156Z" fill="#97A9B8"/>
<path d="M112.638 104.094L118.43 113.201C127.037 113.187 134.011 105.437 134.011 95.8782C134.024 92.5791 133.162 89.3356 131.511 86.479L112.638 104.094Z" fill="#40576D"/>
<path d="M122.483 48.8884C122.483 48.8884 91.1529 71.7122 87.1052 100.522C83.0576 129.332 126.435 147.903 126.435 147.903L131.868 134.332L112.638 104.093L134.01 84.1461" stroke="#40576D" stroke-linecap="round" stroke-linejoin="round"/>
<path d="M163.517 56.6108C163.517 56.6108 173.058 66.7119 183.773 96.4742C183.773 96.4742 191.392 70.5215 194.725 70.9977C198.059 71.4739 198.297 72.9025 198.297 72.9025C198.297 72.9025 212.583 70.2834 212.106 72.6644C211.63 75.0454 202.821 80.9978 203.535 80.9978C204.249 80.9978 205.943 131.232 175.929 133.972" stroke="#40576D" stroke-linecap="round" stroke-linejoin="round"/>
</svg>
