<svg width="125" height="34" viewBox="0 0 125 34" fill="none" xmlns="http://www.w3.org/2000/svg">
<rect width="34" height="34" rx="8.33087" fill="#409DFF"/>
<rect width="34" height="34" rx="8.33087" fill="url(#paint0_linear_2195_25714)"/>
<rect width="34" height="34" rx="8.33087" fill="url(#paint1_linear_2195_25714)" fill-opacity="0.8"/>
<rect width="34" height="34" rx="8.33087" fill="url(#paint2_linear_2195_25714)" fill-opacity="0.9"/>
<path d="M7.15461 7.89844V20.6493C7.15461 20.9015 7.23584 21.1471 7.38628 21.3496L10.9931 26.2049M7.15461 7.89844L10.9931 12.1798M7.15461 7.89844H20.7163C20.9844 7.89844 21.2444 7.99013 21.4531 8.15829L26.4453 12.1798M10.9931 26.2049H25.2708C25.9195 26.2049 26.4453 25.6791 26.4453 25.0304V12.1798M10.9931 26.2049V19.1924M10.9931 12.1798H26.4453M10.9931 12.1798V19.1924M10.9931 19.1924H20.213" stroke="white" stroke-width="2.31413" stroke-linecap="round" stroke-linejoin="round"/>
<path d="M41.728 5.96V8.232H45.392V10.344H41.728V12.808H45.872V15H38.992V3.768H45.872V5.96H41.728ZM53.0883 5.976C54.1336 5.976 54.9656 6.31733 55.5843 7C56.2136 7.672 56.5283 8.6 56.5283 9.784V15H53.8083V10.152C53.8083 9.55467 53.6536 9.09067 53.3443 8.76C53.0349 8.42933 52.6189 8.264 52.0963 8.264C51.5736 8.264 51.1576 8.42933 50.8483 8.76C50.5389 9.09067 50.3843 9.55467 50.3843 10.152V15H47.6483V6.072H50.3843V7.256C50.6616 6.86133 51.0349 6.552 51.5043 6.328C51.9736 6.09333 52.5016 5.976 53.0883 5.976ZM61.8215 5.944C62.4508 5.944 63.0002 6.072 63.4695 6.328C63.9495 6.584 64.3175 6.92 64.5735 7.336V6.072H67.3095V14.984C67.3095 15.8053 67.1442 16.5467 66.8135 17.208C66.4935 17.88 65.9975 18.4133 65.3255 18.808C64.6642 19.2027 63.8375 19.4 62.8455 19.4C61.5228 19.4 60.4508 19.0853 59.6295 18.456C58.8082 17.8373 58.3388 16.9947 58.2215 15.928H60.9255C61.0108 16.2693 61.2135 16.536 61.5335 16.728C61.8535 16.9307 62.2482 17.032 62.7175 17.032C63.2828 17.032 63.7308 16.8667 64.0615 16.536C64.4028 16.216 64.5735 15.6987 64.5735 14.984V13.72C64.3068 14.136 63.9388 14.4773 63.4695 14.744C63.0002 15 62.4508 15.128 61.8215 15.128C61.0855 15.128 60.4188 14.9413 59.8215 14.568C59.2242 14.184 58.7495 13.6453 58.3975 12.952C58.0562 12.248 57.8855 11.4373 57.8855 10.52C57.8855 9.60267 58.0562 8.79733 58.3975 8.104C58.7495 7.41067 59.2242 6.87733 59.8215 6.504C60.4188 6.13067 61.0855 5.944 61.8215 5.944ZM64.5735 10.536C64.5735 9.85333 64.3815 9.31467 63.9975 8.92C63.6242 8.52533 63.1655 8.328 62.6215 8.328C62.0775 8.328 61.6135 8.52533 61.2295 8.92C60.8562 9.304 60.6695 9.83733 60.6695 10.52C60.6695 11.2027 60.8562 11.7467 61.2295 12.152C61.6135 12.5467 62.0775 12.744 62.6215 12.744C63.1655 12.744 63.6242 12.5467 63.9975 12.152C64.3815 11.7573 64.5735 11.2187 64.5735 10.536ZM70.6649 5.144C70.1849 5.144 69.7902 5.00533 69.4809 4.728C69.1822 4.44 69.0329 4.088 69.0329 3.672C69.0329 3.24533 69.1822 2.89333 69.4809 2.616C69.7902 2.328 70.1849 2.184 70.6649 2.184C71.1342 2.184 71.5182 2.328 71.8169 2.616C72.1262 2.89333 72.2809 3.24533 72.2809 3.672C72.2809 4.088 72.1262 4.44 71.8169 4.728C71.5182 5.00533 71.1342 5.144 70.6649 5.144ZM72.0249 6.072V15H69.2889V6.072H72.0249ZM79.4476 5.976C80.493 5.976 81.325 6.31733 81.9436 7C82.573 7.672 82.8876 8.6 82.8876 9.784V15H80.1676V10.152C80.1676 9.55467 80.013 9.09067 79.7036 8.76C79.3943 8.42933 78.9783 8.264 78.4556 8.264C77.933 8.264 77.517 8.42933 77.2076 8.76C76.8983 9.09067 76.7436 9.55467 76.7436 10.152V15H74.0076V6.072H76.7436V7.256C77.021 6.86133 77.3943 6.552 77.8636 6.328C78.333 6.09333 78.861 5.976 79.4476 5.976ZM93.2049 10.392C93.2049 10.648 93.1889 10.9147 93.1569 11.192H86.9649C87.0075 11.7467 87.1835 12.1733 87.4929 12.472C87.8129 12.76 88.2022 12.904 88.6609 12.904C89.3435 12.904 89.8182 12.616 90.0849 12.04H92.9969C92.8475 12.6267 92.5755 13.1547 92.1809 13.624C91.7969 14.0933 91.3115 14.4613 90.7249 14.728C90.1382 14.9947 89.4822 15.128 88.7569 15.128C87.8822 15.128 87.1035 14.9413 86.4209 14.568C85.7382 14.1947 85.2049 13.6613 84.8209 12.968C84.4369 12.2747 84.2449 11.464 84.2449 10.536C84.2449 9.608 84.4315 8.79733 84.8049 8.104C85.1889 7.41067 85.7222 6.87733 86.4049 6.504C87.0875 6.13067 87.8715 5.944 88.7569 5.944C89.6209 5.944 90.3889 6.12533 91.0609 6.488C91.7329 6.85067 92.2555 7.368 92.6289 8.04C93.0129 8.712 93.2049 9.496 93.2049 10.392ZM90.4049 9.672C90.4049 9.20267 90.2449 8.82933 89.9249 8.552C89.6049 8.27467 89.2049 8.136 88.7249 8.136C88.2662 8.136 87.8769 8.26933 87.5569 8.536C87.2475 8.80267 87.0555 9.18133 86.9809 9.672H90.4049ZM103.064 10.392C103.064 10.648 103.048 10.9147 103.016 11.192H96.8243C96.8669 11.7467 97.0429 12.1733 97.3523 12.472C97.6723 12.76 98.0616 12.904 98.5203 12.904C99.2029 12.904 99.6776 12.616 99.9443 12.04H102.856C102.707 12.6267 102.435 13.1547 102.04 13.624C101.656 14.0933 101.171 14.4613 100.584 14.728C99.9976 14.9947 99.3416 15.128 98.6163 15.128C97.7416 15.128 96.9629 14.9413 96.2803 14.568C95.5976 14.1947 95.0643 13.6613 94.6803 12.968C94.2963 12.2747 94.1043 11.464 94.1043 10.536C94.1043 9.608 94.2909 8.79733 94.6643 8.104C95.0483 7.41067 95.5816 6.87733 96.2643 6.504C96.9469 6.13067 97.7309 5.944 98.6163 5.944C99.4803 5.944 100.248 6.12533 100.92 6.488C101.592 6.85067 102.115 7.368 102.488 8.04C102.872 8.712 103.064 9.496 103.064 10.392ZM100.264 9.672C100.264 9.20267 100.104 8.82933 99.7843 8.552C99.4643 8.27467 99.0643 8.136 98.5843 8.136C98.1256 8.136 97.7363 8.26933 97.4163 8.536C97.1069 8.80267 96.9149 9.18133 96.8403 9.672H100.264ZM107.244 7.56C107.564 7.06933 107.964 6.68533 108.444 6.408C108.924 6.12 109.457 5.976 110.044 5.976V8.872H109.292C108.609 8.872 108.097 9.02133 107.756 9.32C107.414 9.608 107.244 10.12 107.244 10.856V15H104.508V6.072H107.244V7.56ZM111.975 3.768H114.775L112.983 8.056H111.143L111.975 3.768ZM120.015 15.128C119.236 15.128 118.543 14.9947 117.935 14.728C117.327 14.4613 116.847 14.0987 116.495 13.64C116.143 13.1707 115.945 12.648 115.903 12.072H118.607C118.639 12.3813 118.783 12.632 119.039 12.824C119.295 13.016 119.609 13.112 119.983 13.112C120.324 13.112 120.585 13.048 120.767 12.92C120.959 12.7813 121.055 12.6053 121.055 12.392C121.055 12.136 120.921 11.9493 120.655 11.832C120.388 11.704 119.956 11.5653 119.359 11.416C118.719 11.2667 118.185 11.112 117.759 10.952C117.332 10.7813 116.964 10.52 116.655 10.168C116.345 9.80533 116.191 9.32 116.191 8.712C116.191 8.2 116.329 7.736 116.607 7.32C116.895 6.89333 117.311 6.55733 117.855 6.312C118.409 6.06667 119.065 5.944 119.823 5.944C120.943 5.944 121.823 6.22133 122.463 6.776C123.113 7.33067 123.487 8.06667 123.583 8.984H121.055C121.012 8.67467 120.873 8.42933 120.639 8.248C120.415 8.06667 120.116 7.976 119.743 7.976C119.423 7.976 119.177 8.04 119.007 8.168C118.836 8.28533 118.751 8.45067 118.751 8.664C118.751 8.92 118.884 9.112 119.151 9.24C119.428 9.368 119.855 9.496 120.431 9.624C121.092 9.79467 121.631 9.96533 122.047 10.136C122.463 10.296 122.825 10.5627 123.135 10.936C123.455 11.2987 123.62 11.7893 123.631 12.408C123.631 12.9307 123.481 13.4 123.183 13.816C122.895 14.2213 122.473 14.5413 121.919 14.776C121.375 15.0107 120.74 15.128 120.015 15.128ZM38.528 25.368C38.528 24.2587 38.768 23.272 39.248 22.408C39.728 21.5333 40.3947 20.856 41.248 20.376C42.112 19.8853 43.088 19.64 44.176 19.64C45.5093 19.64 46.6507 19.992 47.6 20.696C48.5493 21.4 49.184 22.36 49.504 23.576H46.496C46.272 23.1067 45.952 22.7493 45.536 22.504C45.1307 22.2587 44.6667 22.136 44.144 22.136C43.3013 22.136 42.6187 22.4293 42.096 23.016C41.5733 23.6027 41.312 24.3867 41.312 25.368C41.312 26.3493 41.5733 27.1333 42.096 27.72C42.6187 28.3067 43.3013 28.6 44.144 28.6C44.6667 28.6 45.1307 28.4773 45.536 28.232C45.952 27.9867 46.272 27.6293 46.496 27.16H49.504C49.184 28.376 48.5493 29.336 47.6 30.04C46.6507 30.7333 45.5093 31.08 44.176 31.08C43.088 31.08 42.112 30.84 41.248 30.36C40.3947 29.8693 39.728 29.192 39.248 28.328C38.768 27.464 38.528 26.4773 38.528 25.368ZM53.9155 23.56C54.2355 23.0693 54.6355 22.6853 55.1155 22.408C55.5955 22.12 56.1288 21.976 56.7155 21.976V24.872H55.9635C55.2808 24.872 54.7688 25.0213 54.4275 25.32C54.0862 25.608 53.9155 26.12 53.9155 26.856V31H51.1795V22.072H53.9155V23.56ZM57.4793 26.52C57.4793 25.6027 57.6499 24.7973 57.9913 24.104C58.3433 23.4107 58.8179 22.8773 59.4153 22.504C60.0126 22.1307 60.6793 21.944 61.4153 21.944C62.0446 21.944 62.5939 22.072 63.0633 22.328C63.5433 22.584 63.9113 22.92 64.1673 23.336V22.072H66.9033V31H64.1673V29.736C63.9006 30.152 63.5273 30.488 63.0473 30.744C62.5779 31 62.0286 31.128 61.3993 31.128C60.6739 31.128 60.0126 30.9413 59.4153 30.568C58.8179 30.184 58.3433 29.6453 57.9913 28.952C57.6499 28.248 57.4793 27.4373 57.4793 26.52ZM64.1673 26.536C64.1673 25.8533 63.9753 25.3147 63.5913 24.92C63.2179 24.5253 62.7593 24.328 62.2153 24.328C61.6713 24.328 61.2073 24.5253 60.8233 24.92C60.4499 25.304 60.2633 25.8373 60.2633 26.52C60.2633 27.2027 60.4499 27.7467 60.8233 28.152C61.2073 28.5467 61.6713 28.744 62.2153 28.744C62.7593 28.744 63.2179 28.5467 63.5913 28.152C63.9753 27.7573 64.1673 27.2187 64.1673 26.536ZM68.3386 26.52C68.3386 25.6027 68.5093 24.7973 68.8506 24.104C69.2026 23.4107 69.6773 22.8773 70.2746 22.504C70.872 22.1307 71.5386 21.944 72.2746 21.944C72.8613 21.944 73.3946 22.0667 73.8746 22.312C74.3653 22.5573 74.7493 22.888 75.0266 23.304V19.16H77.7626V31H75.0266V29.72C74.7706 30.1467 74.4026 30.488 73.9226 30.744C73.4533 31 72.904 31.128 72.2746 31.128C71.5386 31.128 70.872 30.9413 70.2746 30.568C69.6773 30.184 69.2026 29.6453 68.8506 28.952C68.5093 28.248 68.3386 27.4373 68.3386 26.52ZM75.0266 26.536C75.0266 25.8533 74.8346 25.3147 74.4506 24.92C74.0773 24.5253 73.6186 24.328 73.0746 24.328C72.5306 24.328 72.0666 24.5253 71.6826 24.92C71.3093 25.304 71.1226 25.8373 71.1226 26.52C71.1226 27.2027 71.3093 27.7467 71.6826 28.152C72.0666 28.5467 72.5306 28.744 73.0746 28.744C73.6186 28.744 74.0773 28.5467 74.4506 28.152C74.8346 27.7573 75.0266 27.2187 75.0266 26.536ZM82.478 19.16V31H79.742V19.16H82.478ZM92.8767 26.392C92.8767 26.648 92.8608 26.9147 92.8288 27.192H86.6368C86.6794 27.7467 86.8554 28.1733 87.1648 28.472C87.4848 28.76 87.8741 28.904 88.3328 28.904C89.0154 28.904 89.4901 28.616 89.7568 28.04H92.6688C92.5194 28.6267 92.2474 29.1547 91.8528 29.624C91.4688 30.0933 90.9834 30.4613 90.3968 30.728C89.8101 30.9947 89.1541 31.128 88.4288 31.128C87.5541 31.128 86.7754 30.9413 86.0928 30.568C85.4101 30.1947 84.8768 29.6613 84.4928 28.968C84.1088 28.2747 83.9168 27.464 83.9168 26.536C83.9168 25.608 84.1034 24.7973 84.4768 24.104C84.8608 23.4107 85.3941 22.8773 86.0768 22.504C86.7594 22.1307 87.5434 21.944 88.4288 21.944C89.2928 21.944 90.0608 22.1253 90.7328 22.488C91.4048 22.8507 91.9274 23.368 92.3008 24.04C92.6848 24.712 92.8767 25.496 92.8767 26.392ZM90.0768 25.672C90.0768 25.2027 89.9168 24.8293 89.5968 24.552C89.2768 24.2747 88.8768 24.136 88.3968 24.136C87.9381 24.136 87.5488 24.2693 87.2288 24.536C86.9194 24.8027 86.7274 25.1813 86.6528 25.672H90.0768Z" fill="#2F90F3"/>
<defs>
<linearGradient id="paint0_linear_2195_25714" x1="2.61538" y1="31.875" x2="34" y2="-1.14423" gradientUnits="userSpaceOnUse">
<stop stop-color="#31D0AA"/>
<stop offset="0.625052" stop-color="#31D0AA" stop-opacity="0"/>
</linearGradient>
<linearGradient id="paint1_linear_2195_25714" x1="0" y1="0" x2="34" y2="34" gradientUnits="userSpaceOnUse">
<stop stop-color="#1B5792"/>
<stop offset="0.645916" stop-color="#1B5792" stop-opacity="0"/>
</linearGradient>
<linearGradient id="paint2_linear_2195_25714" x1="34" y1="18.0353" x2="1.10827e-06" y2="17" gradientUnits="userSpaceOnUse">
<stop stop-color="#2A90F8"/>
<stop offset="0.609456" stop-color="#3193F8" stop-opacity="0"/>
</linearGradient>
</defs>
</svg>
