<svg width="32" height="32" viewBox="0 0 32 32" fill="none" xmlns="http://www.w3.org/2000/svg">
<rect y="0.613281" width="32" height="31.36" rx="15.68" fill="#409DFF"/>
<rect y="0.613281" width="32" height="31.36" rx="15.68" fill="url(#paint0_linear_2249_5392)"/>
<rect y="0.613281" width="32" height="31.36" rx="15.68" fill="url(#paint1_linear_2249_5392)" fill-opacity="0.8"/>
<rect y="0.613281" width="32" height="31.36" rx="15.68" fill="url(#paint2_linear_2249_5392)" fill-opacity="0.9"/>
<path d="M6.73271 7.89893V19.6819C6.73271 19.9 6.80403 20.1121 6.93579 20.2859L10.3454 24.784M6.73271 7.89893L10.3454 11.8478M6.73271 7.89893H19.5394C19.7642 7.89893 19.9825 7.97471 20.159 8.11403L24.8887 11.8478M10.3454 24.784H23.8887C24.441 24.784 24.8887 24.3363 24.8887 23.784V11.8478M10.3454 24.784V18.3159M10.3454 11.8478H24.8887M10.3454 11.8478V18.3159M10.3454 18.3159H19.023" stroke="white" stroke-width="1.5" stroke-linecap="round" stroke-linejoin="round"/>
<defs>
<linearGradient id="paint0_linear_2249_5392" x1="2.46154" y1="30.0133" x2="31.3737" y2="-1.0255" gradientUnits="userSpaceOnUse">
<stop stop-color="#31D0AA"/>
<stop offset="0.625052" stop-color="#31D0AA" stop-opacity="0"/>
</linearGradient>
<linearGradient id="paint1_linear_2249_5392" x1="0" y1="0.613281" x2="31.3536" y2="32.6068" gradientUnits="userSpaceOnUse">
<stop stop-color="#1B5792"/>
<stop offset="0.645916" stop-color="#1B5792" stop-opacity="0"/>
</linearGradient>
<linearGradient id="paint2_linear_2249_5392" x1="32" y1="17.2482" x2="0.00122315" y2="16.2539" gradientUnits="userSpaceOnUse">
<stop stop-color="#2A90F8"/>
<stop offset="0.609456" stop-color="#3193F8" stop-opacity="0"/>
</linearGradient>
</defs>
</svg>
